<?xml version="1.0" encoding="UTF-8"?>
<!-- Generator: Adobe Illustrator 23.1.0, SVG Export Plug-In . SVG Version: 6.00 Build 0)  -->
<svg version="1.1" id="Layer_1" xmlns="http://www.w3.org/2000/svg" xmlns:xlink="http://www.w3.org/1999/xlink" x="0px" y="0px" viewBox="0 0 96 96" style="enable-background:new 0 0 96 96;" xml:space="preserve">
<style type="text/css">
	.st0{fill:#223268;}
	.st1{fill:#FFFFFF;}
</style>
<path class="st0" d="M15.31,84.98c13.87,0,27.56-0.01,41.24,0.03c0.85,0,1.7,0.5,2.55,0.76c-0.86,0.32-1.73,0.93-2.59,0.93  c-16.93,0.06-33.87,0.05-50.8,0.03c-0.75,0-1.5-0.24-2.25-0.37c0.03-0.3,0.06-0.59,0.09-0.89c3.31,0,6.61,0,10.2,0  c0-21.26,0-42.19,0-63.71c0.96,0.58,1.57,0.8,2.02,1.24c10.77,10.64,21.52,21.3,32.28,31.95c0.65,0.65,1.32,1.26,2.37,2.26  c0.06-1.41,0.12-2.23,0.13-3.06c0.01-10.06-0.03-20.12,0.04-30.18c0.01-1.34,0.35-2.79,0.86-4.01c1.31-3.11,2.79-6.13,4.22-9.17  c0.31-0.67,0.72-1.27,1.23-2.17c0.49,0.7,0.86,1.12,1.12,1.62c0.56,1.08,0.94,2.3,1.59,3.29c3.69,5.58,4.26,11.88,4.08,18.67  c-0.3,11.55-0.02,23.11-0.13,34.66c-0.02,2.6,0.5,4.55,2.41,6.05c1.11,0.87,2.08,1.98,3.53,3.38c0.07-1.45,0.14-2.34,0.14-3.22  c0.01-18.32,0.04-36.63-0.04-54.95c-0.01-2.33,0.46-3.23,2.62-3.06c2.88,0.22,5.79,0.22,8.67,0c2.19-0.17,2.62,0.81,2.61,3.1  C83.42,39,83.42,59.83,83.46,80.66c0.01,4.99-0.94,4.58,4.04,4.62c1.62,0.01,3.25,0,4.87,0c0.06,0.24,0.11,0.48,0.17,0.72  c-0.43,0.25-0.86,0.71-1.29,0.71c-7.71,0.04-15.42,0.05-23.13,0c-0.48,0-0.97-0.52-1.45-0.79c0.06-0.26,0.12-0.51,0.17-0.77  c2.56,0,5.13,0,7.69,0c0.09-0.23,0.17-0.47,0.26-0.7C55.05,64.68,35.29,44.91,15.36,24.97c0,3.44,0,6.74,0,10.18  c0.78,0,1.6-0.14,2.36,0.04c0.82,0.2,1.58,0.7,2.36,1.07c-0.83,0.32-1.63,0.78-2.48,0.93c-0.64,0.12-1.34-0.13-2.22-0.25  c0,4.14,0,8.16,0,12.33c1.16,0,2.37-0.09,3.56,0.05c0.41,0.05,0.78,0.63,1.17,0.97c-0.4,0.34-0.79,0.95-1.21,0.97  c-1.14,0.08-2.29-0.09-3.58-0.17c0,4.16,0,8.2,0,12.23c1.23,0,2.38-0.08,3.52,0.04c0.44,0.05,0.85,0.56,1.27,0.87  c-0.44,0.39-0.85,1.06-1.32,1.1c-1.07,0.1-2.17-0.09-3.44-0.18c0,4.11,0,8.12,0,12.13c1.27,0,2.44-0.09,3.58,0.05  c0.41,0.05,0.77,0.67,1.15,1.03c-0.4,0.33-0.79,0.89-1.22,0.94c-1.14,0.13-2.29,0.05-3.56,0.05C15.31,81.25,15.31,83.1,15.31,84.98z   M71.16,30.77c0,4.69,0,9.18,0,13.77c1.32,0,2.48-0.08,3.63,0.04c0.51,0.05,0.98,0.51,1.47,0.78c-0.47,0.29-0.92,0.79-1.4,0.84  c-1.21,0.12-2.43,0.04-3.71,0.04c0,4.65,0,9.08,0,13.6c1.1,0,2.07-0.11,3.01,0.04c0.72,0.11,1.4,0.55,2.1,0.84  c-0.73,0.33-1.44,0.82-2.19,0.96c-0.92,0.17-1.87,0.04-2.85,0.04c0,4.65,0,9.12,0,13.63c1.03,0,1.87-0.13,2.67,0.04  c0.82,0.17,1.59,0.62,2.39,0.95c-0.83,0.29-1.65,0.7-2.51,0.85c-0.81,0.15-1.66,0.03-2.49,0.03c-0.09,0.23-0.17,0.46-0.26,0.69  c2.31,2.28,4.44,4.88,6.99,6.75c2.21,1.63,3.85,0.24,3.85-2.72c0-20.66,0-41.31,0-61.97c0-0.55,0.15-1.2-0.06-1.62  c-0.27-0.56-0.81-1.31-1.25-1.33c-3.08-0.11-6.16-0.06-9.33-0.06c0,4.1,0,8.1,0,12.19c1.52,0,2.82-0.06,4.12,0.04  c0.32,0.03,0.61,0.59,0.92,0.91c-0.31,0.23-0.61,0.64-0.93,0.66C74.03,30.81,72.72,30.77,71.16,30.77z M52.07,23.05  c-0.06,0.38-0.15,0.68-0.15,0.98c-0.01,11.07-0.05,22.14,0.05,33.21c0.01,1.15,0.9,2.3,1.38,3.45c0.26-0.09,0.51-0.18,0.77-0.27  c0.05-0.82,0.14-1.64,0.14-2.46c0.01-6.75,0-13.5,0.01-20.26c0-0.63,0-1.26,0.09-1.87c0.04-0.23,0.4-0.61,0.52-0.57  c0.27,0.09,0.62,0.37,0.68,0.64c0.11,0.52,0.06,1.09,0.06,1.64c0,7.69-0.01,15.39,0.01,23.08c0.01,2.58,0.38,2.95,2.71,2.85  c0-13.46,0-26.91,0-40.41c-0.94,0-1.74,0-2.61,0c-0.1,2.56-0.19,4.99-0.29,7.42c-0.35-0.01-0.7-0.02-1.04-0.03c0-2.46,0-4.91,0-7.42  C53.31,23.05,52.72,23.05,52.07,23.05z M62.13,63.58c0-13.63,0-27.02,0-40.5c-0.76,0-1.42,0-2.15,0c0,13.57,0,27,0,40.5  C60.76,63.58,61.36,63.58,62.13,63.58z M61.4,21.23c-1.58-5.1-2.12-5.73-5.38-5.33c-2.66,0.33-2.21,3.42-3.71,5.33  C55.61,21.23,58.42,21.23,61.4,21.23z M59.39,65.61c-0.06,0.18-0.13,0.37-0.19,0.55c0.9,0.82,1.81,1.63,2.9,2.62  c0-1.36,0-2.26,0-3.17C61.1,65.61,60.25,65.61,59.39,65.61z"/>
<path class="st0" d="M55.17,75.9c-1.12,0.21-1.81,0.45-2.51,0.46c-9.23,0.03-18.45-0.01-27.68,0.04c-1.7,0.01-2.5-0.53-2.48-2.67  c0.07-9.12,0.02-18.24,0.06-27.36c0-0.78,0.41-1.55,0.63-2.33c0.65,0.35,1.41,0.56,1.93,1.08c5.78,5.82,11.5,11.7,17.27,17.53  c3.76,3.8,7.57,7.53,11.34,11.32C54.17,74.41,54.5,74.98,55.17,75.9z M51.45,74.49c0.06-0.18,0.12-0.36,0.19-0.54  c-8.91-8.85-17.82-17.71-26.74-26.56c-0.49,8.75-0.51,17.06-0.43,25.37c0.01,0.57,0.79,1.15,1.26,1.67c0.11,0.12,0.4,0.06,0.6,0.06  C34.7,74.49,43.07,74.49,51.45,74.49z"/>
<path class="st1" d="M71.16,30.77c1.56,0,2.86,0.04,4.16-0.03c0.32-0.02,0.62-0.43,0.93-0.66c-0.31-0.32-0.6-0.88-0.92-0.91  c-1.3-0.11-2.6-0.04-4.12-0.04c0-4.09,0-8.09,0-12.19c3.17,0,6.25-0.05,9.33,0.06c0.44,0.02,0.98,0.77,1.25,1.33  c0.2,0.43,0.06,1.07,0.06,1.62c0,20.66,0,41.31,0,61.97c0,2.96-1.64,4.35-3.85,2.72c-2.54-1.87-4.68-4.47-6.99-6.75  c0.09-0.23,0.17-0.46,0.26-0.69c0.83,0,1.68,0.11,2.49-0.03c0.85-0.15,1.67-0.56,2.51-0.85c-0.79-0.33-1.57-0.78-2.39-0.95  c-0.79-0.16-1.63-0.04-2.67-0.04c0-4.5,0-8.98,0-13.63c0.98,0,1.94,0.13,2.85-0.04c0.76-0.14,1.46-0.63,2.19-0.96  c-0.7-0.29-1.38-0.73-2.1-0.84c-0.94-0.15-1.91-0.04-3.01-0.04c0-4.53,0-8.95,0-13.6c1.28,0,2.5,0.08,3.71-0.04  c0.48-0.05,0.93-0.55,1.4-0.84c-0.49-0.27-0.96-0.73-1.47-0.78c-1.15-0.12-2.31-0.04-3.63-0.04C71.16,39.95,71.16,35.46,71.16,30.77  z M76.56,17.78c-0.95,1.57-1.95,2.48-1.88,3.28c0.07,0.83,1.16,1.55,1.81,2.32c0.65-0.75,1.74-1.44,1.83-2.27  C78.4,20.31,77.45,19.37,76.56,17.78z"/>
<path class="st1" d="M52.07,23.05c0.65,0,1.25,0,2.33,0c0,2.51,0,4.97,0,7.42c0.35,0.01,0.7,0.02,1.04,0.03  c0.09-2.43,0.19-4.87,0.29-7.42c0.87,0,1.66,0,2.61,0c0,13.49,0,26.95,0,40.41c-2.33,0.1-2.7-0.27-2.71-2.85  c-0.02-7.69-0.01-15.39-0.01-23.08c0-0.55,0.06-1.12-0.06-1.64c-0.06-0.27-0.41-0.55-0.68-0.64c-0.12-0.04-0.48,0.34-0.52,0.57  c-0.09,0.61-0.09,1.25-0.09,1.87c0,6.75,0,13.5-0.01,20.26c0,0.82-0.09,1.64-0.14,2.46c-0.26,0.09-0.51,0.18-0.77,0.27  c-0.48-1.15-1.37-2.29-1.38-3.45c-0.1-11.07-0.06-22.14-0.05-33.21C51.92,23.74,52.01,23.44,52.07,23.05z"/>
<path class="st1" d="M62.13,63.58c-0.76,0-1.37,0-2.15,0c0-13.5,0-26.93,0-40.5c0.73,0,1.38,0,2.15,0  C62.13,36.56,62.13,49.95,62.13,63.58z"/>
<path class="st1" d="M61.4,21.23c-2.98,0-5.78,0-9.09,0c1.5-1.91,1.05-5,3.71-5.33C59.27,15.49,59.82,16.12,61.4,21.23z"/>
<path class="st1" d="M59.39,65.61c0.86,0,1.72,0,2.71,0c0,0.91,0,1.81,0,3.17c-1.1-0.99-2-1.81-2.9-2.62  C59.26,65.97,59.32,65.79,59.39,65.61z"/>
<path class="st0" d="M76.56,17.78c0.89,1.59,1.84,2.53,1.76,3.33c-0.09,0.83-1.18,1.52-1.83,2.27c-0.65-0.77-1.74-1.49-1.81-2.32  C74.61,20.27,75.6,19.35,76.56,17.78z"/>
</svg>