<?xml version="1.0" encoding="UTF-8"?>
<!-- Generator: Adobe Illustrator 23.1.0, SVG Export Plug-In . SVG Version: 6.00 Build 0)  -->
<svg version="1.1" id="Layer_1" xmlns="http://www.w3.org/2000/svg" xmlns:xlink="http://www.w3.org/1999/xlink" x="0px" y="0px" viewBox="0 0 96 96" style="enable-background:new 0 0 96 96;" xml:space="preserve">
<style type="text/css">
	.st0{fill:#223268;}
	.st1{fill:#FFFFFF;}
</style>
<path class="st0" d="M24.37,76.35c-1.52-2.35-2.96-4.6-4.46-6.82c-0.26-0.38-0.74-0.65-1.18-0.85c-2.2-1.01-3.32-2.74-3.35-5.12  c-0.03-2.42-0.06-4.85,0.09-7.27c0.49-7.95,6.97-14.19,16.14-13.96c2.43,0.06,4.71,1.04,6.27,2.9c1.44,1.71,2.52,1.27,3.98,0.19  c2.5-1.84,5.25-3.06,8.45-3.17c3.17-0.11,5.77,1.05,7.84,3.29c1.1,1.19,1.83,1.36,3.14,0.29c3.95-3.26,8.41-4.34,13.42-2.83  c2.01,0.61,8.63,5.68,9.6,7.53c0.35,0.67,0.75,1.42,0.77,2.14c0.11,3.95,0.22,7.9,0.09,11.84c-0.06,1.9-1.33,3.24-3.06,4.09  c-0.49,0.24-1.06,0.51-1.35,0.93c-1.51,2.21-2.94,4.47-4.49,6.86c1.61,0.33,3.6,0.86,5.63,1.13c5.07,0.67,7.96,3.56,9.14,8.43  c1.12,4.62,1.89,4.65-3.58,4.65c-25.26-0.03-50.53-0.01-75.79-0.01c-3.1,0-3.03-0.13-2.45-3.16c1.16-6.12,4.54-9.65,10.87-10.16  c0.95-0.08,1.88-0.33,2.82-0.53C23.51,76.6,24.11,76.42,24.37,76.35z M41.19,88.09c6.17,0,12.11,0,18.28,0  c-0.31-1.35-0.68-2.5-0.78-3.67c-0.04-0.47,0.51-0.99,0.79-1.49c0.48,0.3,1.21,0.5,1.39,0.93c0.42,0.98,0.5,2.11,0.88,3.11  c0.19,0.49,0.73,1.16,1.16,1.19c1.88,0.13,3.77,0.06,5.67,0.06c-0.34-4.92-2.25-7.21-6.73-8.21c-2.05-0.46-4.14-0.75-6.17-1.3  c-1.1-0.29-2.09-0.96-3.14-1.46c0.05-0.09,0.1-0.18,0.15-0.27c-1.63,0-3.27,0-4.9,0c-0.69,0.78-1.51,1.43-2.43,1.66  c-2.47,0.61-5,0.99-7.48,1.57c-3.68,0.86-6,4.15-5.64,7.96c1.95,0,3.92,0,5.89-0.01c0.12,0,0.32-0.07,0.34-0.14  c0.42-1.33,0.72-2.71,1.26-3.99c0.21-0.49,0.95-0.75,1.45-1.12c0.27,0.56,0.79,1.14,0.76,1.67C41.86,85.72,41.49,86.81,41.19,88.09z   M62.5,58.91c0-1.34-0.05-2.67,0.01-4c0.12-2.94-1.34-4.79-3.91-5.97c-0.56-0.25-1.15-0.59-1.52-1.05  c-1.89-2.36-4.36-3.12-7.29-2.97c-7.02,0.36-12.92,7.64-11.38,13.98c3.27-0.42,6.7-0.49,9.04-3.36c0.98-1.21,1.95-1.07,3.11-0.17  c2.26,1.75,4.81,2.87,7.7,3.09C59.59,58.57,60.91,58.74,62.5,58.91z M48.82,57.79c-0.79,0.53-1.82,1.76-3.01,1.92  c-4.12,0.58-4.02,3.34-3.73,6.35c0.01,0.13,0,0.25,0,0.38c0.09,4.11,3.19,7.68,7.14,8.21c3.98,0.53,7.89-1.84,8.89-5.87  c0.6-2.42,0.44-5.02,0.59-7.23C55.24,60.23,52.12,59.05,48.82,57.79z M28.75,57.67c-0.78,0.55-1.66,1.31-2.66,1.83  c-1.06,0.55-2.27,0.81-3.34,1.35c-0.4,0.2-0.79,0.82-0.81,1.26c-0.08,1.72-0.13,3.45,0.03,5.16c0.35,3.74,3.34,6.85,6.95,7.38  c3.64,0.54,7.34-1.52,8.65-4.89c0.21-0.53,0.37-1.49,0.09-1.74c-2.01-1.79-2.12-4.08-2.08-6.49c0.01-0.42-0.43-1.04-0.82-1.23  C32.82,59.37,30.82,58.56,28.75,57.67z M78.77,65.1c0-0.82-0.06-1.27,0.01-1.71c0.28-1.79-0.33-2.63-2.26-2.82  c-1.42-0.14-2.97-0.6-4.12-1.41c-2.17-1.54-3.85-1.35-5.91,0.25c-1.06,0.82-1.57,1.46-1.46,2.72c0.18,2.11-0.18,4.03-1.78,5.63  c-0.35,0.35-0.39,1.3-0.19,1.84c1.83,5.04,8.32,6.72,12.53,3.31C78.2,70.8,79.03,67.98,78.77,65.1z M34.98,57.99  c1.01-2.93,1.91-5.49,2.77-8.05c0.11-0.33,0.22-0.85,0.06-1.04c-1.6-1.83-3.24-3.61-5.87-3.94c-7.94-1-14.92,6.07-13.86,13.94  c3.65-0.28,7.21-0.78,9.82-3.83c0.28-0.33,1.51-0.14,2.12,0.16C31.8,56.1,33.49,57.15,34.98,57.99z M65.03,57.73  c1.17-0.95,1.96-1.42,2.51-2.08c1.05-1.26,1.98-1.13,3.27-0.28c1.58,1.04,3.28,2.05,5.07,2.57c2.16,0.62,4.47,0.72,6.85,1.06  c0-1.31-0.03-2.58,0.01-3.85c0.08-3.04-1.3-5.08-4.08-6.26c-0.56-0.24-1.09-0.65-1.5-1.1c-3.73-4.07-11.22-3.72-14.72,0.85  C64.96,50.9,65.19,54,65.03,57.73z M66.26,79.1c2.8,1.52,3.96,4.18,4.6,7.11c0.34,1.57,1.07,2.12,2.73,2.07  c4.4-0.13,8.8-0.04,13.2-0.05c0.67,0,1.34-0.07,2.01-0.11c-0.36-4.76-2.29-7.07-6.63-8.06c-2.05-0.47-4.14-0.77-6.17-1.31  c-1.16-0.31-2.23-0.95-3.35-1.45c0.05-0.1,0.11-0.2,0.16-0.3c-1.58,0-3.16,0-4.71,0C67.56,77.63,66.97,78.3,66.26,79.1z   M27.77,77.01c0,0.13-0.01,0.25-0.01,0.38c-0.87,0.44-1.69,1.05-2.61,1.28c-2.35,0.59-4.74,0.98-7.11,1.5  c-3.9,0.87-6.05,3.63-6.14,7.85c0.16,0.06,0.33,0.18,0.5,0.18c5.23,0.02,10.46,0.07,15.69-0.02c0.49-0.01,1.21-0.78,1.39-1.34  c0.99-3.06,1.83-6.16,4.89-7.74c-0.72-0.84-1.31-1.53-1.8-2.1C30.92,77.01,29.34,77.01,27.77,77.01z M44.91,76.17  c-1.7-1.96-3.28-3.78-4.69-5.41c-1.52,1.75-3.07,3.55-4.68,5.41C38.7,77.45,41.79,77.44,44.91,76.17z M55.74,76.16  c3.13,1.27,6.22,1.28,9.36,0c-1.64-1.91-3.21-3.74-4.65-5.41C58.97,72.45,57.41,74.24,55.74,76.16z M39.52,66.14  c0-1.68,0-3.06,0-4.63C37.7,63.18,37.69,64.43,39.52,66.14z M61.14,61.51c0,1.67,0,3.05,0,4.63C62.96,64.43,62.96,63.19,61.14,61.51  z M19.41,61.61c-2.01,1.51-1.98,3.17,0,4.32C19.41,64.52,19.41,63.17,19.41,61.61z M81.24,66.08c2.02-1.59,1.97-3.25,0-4.34  C81.24,63.14,81.24,64.49,81.24,66.08z"/>
<path class="st0" d="M79.83,15.15c-0.08-0.01-0.39,0.06-0.58-0.07c-2.25-1.46-3.92,0.03-5.69,1.09c-0.76,0.46-1.53,0.93-2.33,1.32  c-1.31,0.63-2.26,1.32-2.45,3.03c-0.2,1.8-1.92,2.79-3.85,2.71c-1.85-0.08-3.34-1.2-3.55-3.12c-0.14-1.24-0.75-1.76-1.69-2.26  c-1.18-0.63-2.33-1.32-3.49-1.99c-1.57-0.92-3.04-2.1-5.04-0.83c-0.48,0.31-1.51,0.24-2.02-0.08c-1.41-0.89-2.5-0.32-3.68,0.38  c-1.09,0.65-2.21,1.27-3.34,1.86c-1.46,0.75-2.84,1.3-3.04,3.43c-0.17,1.85-1.95,2.76-3.89,2.61c-1.88-0.15-3.2-1.15-3.41-3.02  c-0.15-1.36-0.79-1.99-1.91-2.52c-1.27-0.59-2.46-1.34-3.69-2.03c-1.43-0.8-2.69-1.49-4.56-0.68c-2.09,0.9-4.27-0.67-4.73-2.91  c-0.42-2.02,0.89-4.06,2.9-4.52c2.22-0.5,4.39,0.82,4.66,3.07c0.14,1.2,0.66,1.8,1.65,2.28c1.43,0.7,2.82,1.48,4.2,2.28  c1.33,0.77,2.56,1.63,4.19,0.53c0.48-0.32,1.52-0.32,2.02,0c1.62,1.03,2.86,0.31,4.19-0.52c0.97-0.6,2-1.13,3.03-1.64  c1.43-0.71,2.66-1.36,2.92-3.31c0.24-1.82,2.04-2.84,3.85-2.77c1.83,0.07,3.22,1.38,3.8,3.24c0.25,0.79,0.83,1.61,1.5,2.11  c1.12,0.83,2.44,1.37,3.63,2.11c1.51,0.94,2.9,2.02,4.84,0.75c0.5-0.33,1.62-0.2,2.19,0.15c1.35,0.85,2.37,0.37,3.49-0.35  c1.07-0.69,2.21-1.26,3.31-1.91c1.45-0.85,2.95-1.44,3.14-3.63c0.16-1.79,2.48-2.8,4.4-2.4c1.89,0.39,3.18,2.14,3.01,4.09  C83.64,13.7,82.11,15.13,79.83,15.15z M22.81,11.23c-1.01-0.66-1.64-1.39-2.15-1.31c-0.53,0.08-1.33,0.94-1.32,1.44  c0.02,0.5,0.88,1.3,1.42,1.34C21.28,12.74,21.85,11.96,22.81,11.23z M82.06,11.4c-0.96-0.74-1.53-1.51-2.04-1.48  c-0.54,0.04-1.41,0.84-1.43,1.33c-0.02,0.5,0.77,1.36,1.31,1.45C80.41,12.78,81.04,12.05,82.06,11.4z M37.64,19.38  c-1-0.68-1.6-1.42-2.11-1.36c-0.54,0.06-0.99,0.88-1.47,1.37c0.49,0.49,0.94,1.31,1.48,1.37C36.05,20.82,36.64,20.07,37.64,19.38z   M67.25,19.39c-0.99-0.69-1.58-1.43-2.09-1.37c-0.54,0.06-1.37,0.88-1.37,1.36c0,0.49,0.83,1.32,1.36,1.38  C65.65,20.82,66.25,20.08,67.25,19.39z M52.41,11.32c-1.02-0.72-1.57-1.4-2.12-1.4c-0.45,0-1.29,0.87-1.24,1.28  c0.06,0.57,0.72,1.39,1.25,1.5C50.76,12.78,51.38,12.03,52.41,11.32z"/>
<path class="st1" d="M44.91,76.17c-3.12,1.27-6.22,1.28-9.36-0.01c1.61-1.86,3.16-3.65,4.68-5.41  C41.63,72.38,43.22,74.21,44.91,76.17z"/>
<path class="st1" d="M55.74,76.16c1.67-1.92,3.23-3.72,4.71-5.41c1.44,1.67,3.01,3.51,4.65,5.41  C61.96,77.44,58.87,77.44,55.74,76.16z"/>
<path class="st1" d="M39.52,66.14c-1.82-1.71-1.82-2.96,0-4.63C39.52,63.08,39.52,64.46,39.52,66.14z"/>
<path class="st1" d="M61.14,61.51c1.82,1.67,1.82,2.92,0,4.63C61.14,64.56,61.14,63.18,61.14,61.51z"/>
<path class="st1" d="M19.41,61.61c0,1.56,0,2.91,0,4.32C17.43,64.78,17.39,63.12,19.41,61.61z"/>
<path class="st1" d="M81.24,66.08c0-1.59,0-2.94,0-4.34C83.21,62.83,83.26,64.49,81.24,66.08z"/>
<path class="st1" d="M52.41,11.32c-1.03,0.71-1.65,1.46-2.12,1.37c-0.52-0.1-1.18-0.93-1.25-1.5c-0.05-0.41,0.8-1.28,1.24-1.28  C50.84,9.92,51.39,10.6,52.41,11.32z"/>
<circle class="st1" cx="21.08" cy="11.31" r="2.07"/>
<circle class="st1" cx="35.85" cy="19.39" r="2.07"/>
<circle class="st1" cx="50.73" cy="11.31" r="2.07"/>
<circle class="st1" cx="65.51" cy="19.39" r="2.07"/>
<circle class="st1" cx="80.33" cy="11.31" r="2.07"/>
</svg>