<?xml version="1.0" encoding="UTF-8"?>
<!-- Generator: Adobe Illustrator 23.1.0, SVG Export Plug-In . SVG Version: 6.00 Build 0)  -->
<svg version="1.1" id="Layer_1" xmlns="http://www.w3.org/2000/svg" xmlns:xlink="http://www.w3.org/1999/xlink" x="0px" y="0px" viewBox="0 0 96 96" style="enable-background:new 0 0 96 96;" xml:space="preserve">
<style type="text/css">
	.st0{fill:#FFFFFF;stroke:#223268;stroke-width:2.3093;stroke-miterlimit:10;}
	.st1{fill:#FFFFFF;stroke:#223268;stroke-width:2.2763;stroke-miterlimit:10;}
	.st2{fill:#FFFFFF;stroke:#223268;stroke-width:2;stroke-miterlimit:10;}
	.st3{fill:#FFFFFF;stroke:#223268;stroke-miterlimit:10;}
</style>
<path class="st0" d="M20.59,60.19c1.51-0.56,2.79-1.04,4.22-1.57c-2.26-3.55-4.47-7.03-6.69-10.52c-0.25-0.39-0.5-0.78-0.73-1.17  c-0.67-1.13-0.56-2.19,1.04-2.75c1.53-0.54,2.76-0.12,3.55,1.04c1.9,2.78,3.64,5.63,5.83,8.28c2.79,3.38,4.04,6.92,3.5,10.87  c-0.2,1.43-0.03,2.89-0.03,4.54c-4.94,0-9.74,0.02-14.53-0.04c-0.44-0.01-1.08-0.47-1.28-0.82c-3.65-6.38-7.35-12.74-10.81-19.17  c-2.2-4.08-1.95-8.24,0.59-12.23c4.86-7.62,9.82-15.2,14.73-22.81c0.76-1.18,1.88-1.77,3.63-1.27c1.55,0.44,2,1.53,1.19,2.99  c-3.55,6.35-7.15,12.68-10.69,19.03c-2.73,4.92-4.05,9.89-0.58,14.96c1.7,2.49,3.35,5,5.02,7.5C19.23,58.05,19.87,59.07,20.59,60.19  z"/>
<path class="st1" d="M71.09,58.5c1.45,0.55,2.69,1.02,4.1,1.55c0.74-1.16,1.47-2.31,2.21-3.45c1.55-2.41,3.07-4.83,4.66-7.22  c3.22-4.83,2.21-9.63-0.3-14.35c-3.37-6.37-6.89-12.7-10.34-19.04c-0.24-0.45-0.75-0.96-0.62-1.34c0.25-0.76,0.65-1.85,1.36-2.06  c0.84-0.25,2.14,0.17,3.11,0.51c0.45,0.16,0.63,0.8,0.91,1.24c4.43,7.01,8.81,14.04,13.29,21.03c3.1,4.83,3.4,9.65,0.58,14.63  c-3.32,5.86-6.48,11.78-9.77,17.65c-0.27,0.48-1.06,1.1-1.62,1.11c-4.52,0.09-9.05,0.05-13.81,0.05c0-3.45-0.02-6.77,0.03-10.1  c0.01-0.4,0.35-0.8,0.61-1.18c2.7-4.01,5.41-8.02,8.12-12.02c1.07-1.58,2.27-2.03,3.76-1.43c1.44,0.57,1.67,1.61,0.67,3.24  C75.76,50.97,73.48,54.65,71.09,58.5z"/>
<path class="st2" d="M34.61,30.37c1.18-1.31,2.03-2.26,2.86-3.18c4.39,3.25,7.6,3.37,10.14,0.49c2.48-2.83,2.14-6.29-1.3-9.72  c0.67-0.58,1.34-1.17,1.86-1.62c4.62,4.6,9.03,9.01,13.49,13.46c-1.39,2.51-5.59,3.63-4.42,8.04c-2.56-0.83-4.2,0.48-5.67,2.2  c-1.04,1.21-2.12,2.39-3.36,3.77c-1.44-1.53-2.57-2.74-3.71-3.93c-1.21-1.27-2.6-2.04-4.82-1.21c1.26-2.5-0.14-3.8-1.53-5.09  C36.97,32.5,35.78,31.43,34.61,30.37z"/>
<path class="st2" d="M83.88,71.8c0,4.01-0.02,7.94,0.01,11.88c0.01,1.24-0.84,1.04-1.56,1.04c-5.61,0.01-11.22,0.01-16.83,0.01  c-1.46,0-2.91-0.02-4.37,0c-0.81,0.01-1.15-0.32-1.15-1.16c0.02-3.62-0.02-7.23,0.06-10.84c0.01-0.41,0.67-1.15,1.04-1.15  c7.39-0.05,14.78-0.03,22.17,0C83.4,71.57,83.55,71.67,83.88,71.8z M67.56,80.7c0.03-1.65-1.26-3.01-2.92-3.06  c-1.67-0.05-3.02,1.2-3.08,2.87c-0.06,1.76,1.24,3.13,2.97,3.14C66.19,83.65,67.53,82.35,67.56,80.7z"/>
<path class="st2" d="M12.19,84.51c0-4.28,0-8.47,0-12.84c0.6-0.05,1.16-0.15,1.73-0.15c6.74-0.01,13.49,0.03,20.23-0.04  c1.49-0.02,1.94,0.45,1.89,1.93c-0.11,3.29-0.05,6.58-0.02,9.87c0.01,0.86-0.1,1.45-1.19,1.45c-7.34-0.03-14.68-0.03-22.01-0.05  C12.66,84.68,12.51,84.6,12.19,84.51z M31.42,83.65c1.68,0.01,2.98-1.26,3.02-2.94c0.03-1.74-1.32-3.1-3.05-3.07  c-1.66,0.03-2.96,1.37-2.95,3.03C28.45,82.34,29.75,83.64,31.42,83.65z"/>
<path class="st3" d="M58.89,40.67c0.89,0,1.69-0.06,2.48,0.01c1.32,0.11,2.16,1.1,2.07,2.38c-0.09,1.27-0.8,1.95-2.07,1.99  c-1.34,0.05-2.13-0.73-2.26-2.16C59.05,42.16,58.97,41.43,58.89,40.67z"/>
<path class="st3" d="M37.03,41.38c-0.06,0.99-0.04,1.89-0.17,2.77c-0.19,1.24-0.97,1.86-2.25,1.81c-1.19-0.05-1.9-0.67-2.05-1.85  c-0.16-1.26,0.44-2.12,1.62-2.42C35.1,41.47,36.06,41.48,37.03,41.38z"/>
<path class="st2" d="M66.5,80.66c0.02,1.18-0.84,2.06-2.01,2c-1.2-0.07-1.9-0.75-1.92-1.94c-0.02-1.18,0.64-1.9,1.85-1.99  C65.6,78.64,66.48,79.49,66.5,80.66z"/>
</svg>