<?xml version="1.0" encoding="UTF-8"?>
<!-- Generator: Adobe Illustrator 23.1.0, SVG Export Plug-In . SVG Version: 6.00 Build 0)  -->
<svg version="1.1" id="Layer_1" xmlns="http://www.w3.org/2000/svg" xmlns:xlink="http://www.w3.org/1999/xlink" x="0px" y="0px" viewBox="0 0 96 96" style="enable-background:new 0 0 96 96;" xml:space="preserve">
<style type="text/css">
	.st0{fill:#223268;}
</style>
<path class="st0" d="M7.9,52.51c0.51-1.73,0.91-3.5,1.54-5.18c3.02-7.94,11.56-13.02,19.37-11.57c8.98,1.67,15.04,8.92,15.69,17.94  c0.25,3.42,1.71,6.75,2.72,10.08c0.76,2.49,1.72,4.91,2.53,7.38c0.57,1.75,0.1,2.44-1.68,2.5c-1.5,0.05-3.01,0.12-4.51-0.02  c-1.64-0.15-2.05,0.56-1.96,2.13c0.11,1.96-0.02,3.93,0.04,5.89c0.05,1.66-0.55,2.35-2.2,2.32c-3.88-0.08-7.76,0.02-11.65-0.05  c-1.31-0.02-1.81,0.43-1.72,1.8c0.08,1.24,0.01,2.48,0,3.73c-0.01,1.28-0.58,1.91-1.84,1.91c-4.82-0.02-9.64,0.02-14.46-0.04  c-0.63-0.01-1.25-0.46-1.88-0.71C7.9,77.92,7.9,65.22,7.9,52.51z M46.38,70.48c-0.77-2.12-1.52-3.9-2.07-5.75  c-1.07-3.6-2.63-7.18-2.91-10.86c-0.64-8.35-6.89-14.95-15-15.01c-8.18-0.06-15.14,6.47-15.3,14.84  c-0.21,10.93-0.05,21.87-0.09,32.8c0,1.33,0.54,1.7,1.7,1.67c2-0.05,4.01-0.01,6.02-0.01c4.35,0,4.35,0,4.43-4.48  c0.04-2.29,0.35-2.64,2.51-2.65c3.76-0.02,7.52-0.04,11.28,0.01c1.2,0.02,1.71-0.43,1.67-1.71c-0.06-1.96-0.03-3.93-0.01-5.89  c0.03-2.38,0.52-2.9,2.75-2.94C42.92,70.46,44.48,70.48,46.38,70.48z"/>
<path class="st0" d="M92.62,59.09c-0.73,0.27-1.46,0.76-2.2,0.77c-4.63,0.07-9.27-0.01-13.9,0.06c-1.57,0.02-2.18-0.67-2.09-2.22  c0-0.07,0-0.13,0-0.2c-0.07-1.55,0.41-3.88-0.35-4.48c-1.07-0.84-3.07-0.46-4.67-0.49c-2.57-0.05-5.14-0.01-7.7-0.02  c-2.7-0.01-2.81-0.13-2.82-3.04c0-2.34,0-4.68,0-7.28c-2.26,0-4.31,0.02-6.35-0.01c-1.96-0.03-2.37-0.61-1.73-2.56  c0.87-2.66,1.84-5.28,2.72-7.93c1.24-3.74,2.44-7.42,2.9-11.47c1.05-9.28,8.9-16.09,17.81-16.1c8.86-0.01,16.47,6.68,18,15.8  c0.06,0.36,0.25,0.7,0.38,1.05C92.62,33.68,92.62,46.38,92.62,59.09z M89.6,57c0.08-0.4,0.21-0.71,0.21-1.02  c-0.05-11.38,0.13-22.78-0.24-34.15c-0.28-8.49-7.33-14.96-15.34-14.85c-8.11,0.11-14.68,6.6-15.44,14.97  c-0.23,2.56-0.92,5.1-1.66,7.57c-0.96,3.22-2.17,6.36-3.39,9.89c1.99,0,3.65-0.01,5.31,0c2.2,0.02,2.45,0.28,2.47,2.64  c0.02,1.96,0.07,3.93-0.02,5.89c-0.06,1.38,0.43,1.81,1.73,1.79c3.76-0.07,7.52-0.04,11.27-0.02c2.23,0.01,2.58,0.39,2.6,2.77  c0.01,1.48,0,2.95,0,4.51C81.47,57,85.51,57,89.6,57z"/>
<path class="st0" d="M82.74,68.5c-0.84,0.73-1.35,1.16-1.95,1.68c-0.62-0.61-1.19-1.17-1.94-1.91c1.44-1.45,2.72-2.89,4.18-4.1  c0.43-0.36,1.59-0.35,2.04,0.01c1.44,1.14,2.7,2.51,4.1,3.86c-0.81,0.77-1.38,1.31-2.05,1.95c-0.36-0.31-0.87-0.75-1.79-1.54  c0,2.07,0,3.72,0,5.36c-0.01,6-2.5,8.63-8.22,8.64c-8.2,0.01-16.4,0-24.61,0c-0.62,0-1.24,0-2,0c0-0.87,0-1.62,0-2.66  c0.71,0,1.43,0,2.15,0c8.2,0,16.4,0.01,24.61,0c3.82,0,5.46-1.73,5.47-5.72C82.74,72.34,82.74,70.61,82.74,68.5z"/>
<path class="st0" d="M47.18,16.52c0,0.91,0,1.61,0,2.61c-1.24,0-2.4,0-3.57,0c-4.01,0-8.02,0-12.03,0  c-3.77,0.01-5.46,1.78-5.49,5.75c0,0.65,0.03,1.31,0.07,1.96c0.01,0.11,0.13,0.21,0.26,0.39c0.53-0.44,1.05-0.88,1.65-1.38  c0.55,0.54,1.1,1.07,1.83,1.79c-1.46,1.52-2.8,3.04-4.29,4.38c-0.34,0.3-1.37,0.22-1.78-0.1c-1.49-1.17-2.86-2.52-4.5-4  c1.03-1,1.61-1.56,2.19-2.12c0.64,0.55,1.15,1,2.03,1.77c0-1.61-0.06-2.83,0.01-4.05c0.21-3.9,2.46-6.75,6.15-6.92  C35.46,16.33,41.22,16.52,47.18,16.52z"/>
<path class="st0" d="M52.78,19.05c-0.81,0-1.48,0-2.28,0c0-0.83,0-1.62,0-2.52c0.74,0,1.45,0,2.28,0  C52.78,17.35,52.78,18.09,52.78,19.05z"/>
<path class="st0" d="M47.1,82.37c-0.77,0-1.44,0-2.24,0c0-0.78,0-1.53,0-2.28C47.15,79.45,47.39,79.66,47.1,82.37z"/>
<path class="st0" d="M32.65,59.74c-1.62-0.68-3.14-1.21-4.54-1.98c-0.47-0.26-1-1.45-0.82-1.71c0.54-0.79,1.03-2.1,2.46-1.26  c1.99,1.17,4,1.21,6.02-0.03c1.39-0.85,1.86,0.59,2.46,1.34c0.16,0.2-0.29,1.37-0.71,1.58C36,58.46,34.37,59.03,32.65,59.74z"/>
<path class="st0" d="M73.55,25.23c-3.49,3.64-8.59,3.6-11.48,0.23c0.54-0.6,1.09-1.21,1.68-1.86c2.4,1.78,4.67,2.07,7.15,0.53  C71.35,23.85,72.47,24.76,73.55,25.23z"/>
</svg>