<?xml version="1.0" encoding="UTF-8"?>
<!-- Generator: Adobe Illustrator 23.1.0, SVG Export Plug-In . SVG Version: 6.00 Build 0)  -->
<svg version="1.1" id="Capa_1" xmlns="http://www.w3.org/2000/svg" xmlns:xlink="http://www.w3.org/1999/xlink" x="0px" y="0px" viewBox="0 0 512 512" style="enable-background:new 0 0 512 512;" xml:space="preserve">
<style type="text/css">
	.st0{fill:#002A6C;}
</style>
<g>
	<path class="st0" d="M498,280.1l-42-134.3c10.8-5.1,19.3-14.4,23.3-25.7H497c8.3,0,15-6.7,15-15s-6.7-15-15-15h-17.6   c-6.2-17.5-22.9-30-42.4-30s-36.2,12.5-42.4,30h-32c-4.9-10.4-14.8-17.9-26.6-19.6V35c0-19.3-15.7-35-35-35H191   c-19.3,0-35,15.7-35,35v55h-38.6C111.2,72.5,94.6,60,75,60S38.8,72.5,32.6,90H15c-8.3,0-15,6.7-15,15s6.7,15,15,15h17.6   c4,11.4,12.5,20.7,23.3,25.7L14,280.1c-7.8,0.5-14,7-14,14.9v20c0,41.4,33.6,75,75,75s75-33.6,75-75v-20c0-7.9-6.2-14.4-14-14.9   l-42-134.3c10.8-5.1,19.3-14.4,23.3-25.7H156v42.6c0,29.2,10.6,56.8,30,78.4v29.9c-5.8,2.1-10,7.6-10,14.1v212c0,8.3,6.7,15,15,15   h130c8.3,0,15-6.7,15-15V285c0-6.5-4.2-12.1-10-14.1v-30.6l36.7-45.9c2.1-2.7,3.3-6,3.3-9.4v-65h28.6c4,11.4,12.5,20.7,23.3,25.7   l-42,134.3c-7.8,0.5-14,7-14,14.9v20c0,41.4,33.6,75,75,75s75-33.6,75-75v-20C512,287.1,505.8,280.6,498,280.1L498,280.1z M75,90   c8.3,0,15,6.7,15,15s-6.7,15-15,15s-15-6.7-15-15S66.7,90,75,90z M120,315c0,24.8-20.2,45-45,45s-45-20.2-45-45v-5h90V315z    M45.4,280L75,185.3l29.6,94.7H45.4z M437,90c8.3,0,15,6.7,15,15s-6.7,15-15,15s-15-6.7-15-15S428.7,90,437,90z M186,35   c0-2.8,2.2-5,5-5h110c2.8,0,5,2.2,5,5v35h-40c-16.8,0-31.1,10.4-37.1,25H201c-8.3,0-15-6.7-15-15V35z M306,482H206V300h100V482z    M336,179.7l-36.7,45.9c-2.1,2.7-3.3,6-3.3,9.4v35h-80v-35c0-4-1.6-7.8-4.4-10.6c-16.5-16.5-25.6-38.5-25.6-61.8v-40.2   c4.7,1.7,9.7,2.6,15,2.6h27.9c5.2,12.9,17,22.5,31.2,24.6c-9.1,13.1-14.1,28.8-14.1,45.4c0,8.3,6.7,15,15,15s15-6.7,15-15   c0-19,10.5-36,27.5-44.5l4.2-2.1c6.2-3.1,9.5-10.1,7.9-16.9S308,120,301,120h-35c-5.5,0-10-4.5-10-10s4.5-10,10-10h65   c2.8,0,5,2.2,5,5L336,179.7z M437,185.3l29.6,94.7h-59.2L437,185.3z M482,315c0,24.8-20.2,45-45,45s-45-20.2-45-45v-5h90V315z"/>
</g>
</svg>