<?xml version="1.0" encoding="UTF-8"?>
<!-- Generator: Adobe Illustrator 23.1.0, SVG Export Plug-In . SVG Version: 6.00 Build 0)  -->
<svg version="1.1" id="Capa_1" xmlns="http://www.w3.org/2000/svg" xmlns:xlink="http://www.w3.org/1999/xlink" x="0px" y="0px" viewBox="0 0 512 512" style="enable-background:new 0 0 512 512;" xml:space="preserve">
<style type="text/css">
	.st0{fill:#002A6C;}
</style>
<g>
	<g>
		<path class="st0" d="M511.9,462l-19.2-100.2c-4.8-25.2-23-45.7-47.4-53.5L391.7,291v-21c6.6-3.3,12.8-7.5,18.4-12.6    c26.9-1.2,48.5-23.4,48.5-50.7V199c3.6-4.6,5.8-10.4,5.8-16.7s-2.2-12.1-5.8-16.7v-22.3c0-19.7-5.6-38.8-16.2-55.2    c-2.2-3.5-6.9-4.5-10.4-2.2c-3.5,2.2-4.5,6.9-2.2,10.4c9,14,13.8,30.3,13.8,47.1v12.6c-2-0.5-4.2-0.8-6.4-0.8H437    c0.3-0.8,0.4-1.6,0.4-2.5c0-4.1-3.4-7.5-7.5-7.5h-31.7c-22.3,0-40.4-18.1-40.4-40.4V93.4c0-4.1-3.4-7.5-7.5-7.5    c-3.3,0-6,2.1-7.1,5c-33.8,5.5-60,31.4-66.4,64.2h-1.3c-2.2,0-4.3,0.3-6.4,0.8v-12.6c0-48,39.1-87.1,87.1-87.1    c18.4,0,35.9,5.7,50.8,16.3c3.4,2.4,8,1.7,10.5-1.7s1.7-8-1.7-10.5c-17.4-12.5-38-19.2-59.6-19.2c-56.3,0-102.1,45.8-102.1,102.1    v18.6c-4.8-4.2-11.1-6.8-18-6.8h-0.5c-0.1-0.4-0.1-0.7-0.2-1.1c1.9-0.7,3.7-1.8,5.3-3.1c3.8-3.4,5.9-8.2,5.6-13.2l-0.8-18.8    c-0.2-5.5-3.2-10.5-7.7-13.3c-4.3-17.8-14.5-33.9-28.9-45.5c-15-12.1-34-18.8-53.5-18.8c-19.5,0-38.5,6.7-53.5,18.8    c-14.4,11.6-24.7,27.8-28.9,45.6c-4.5,2.9-7.5,7.8-7.7,13.3l-0.8,18.8c-0.2,5.1,1.8,9.9,5.6,13.2c1.6,1.4,3.4,2.4,5.3,3.1    c-0.1,0.4-0.1,0.7-0.2,1.1h-0.5c-15,0-27.1,12.2-27.1,27.1s12.2,27.1,27.1,27.1h0.6c1.1,7.2,3.3,14.3,6.5,21.2    c1.3,2.7,4,4.3,6.8,4.3c1.1,0,2.2-0.2,3.2-0.7c3.7-1.8,5.4-6.2,3.6-10c-4-8.4-6-17.2-6-26v-32c0-4.2,0.4-8.5,1.2-12.6    c18.3-2.6,43.3-4.3,64.8-4.3s46.5,1.7,64.8,4.3c0.8,4.1,1.2,8.3,1.2,12.6v32c0,34.7-30.9,65.1-66,65.1c-14.4,0-28.2-4.8-39.9-14    c-3.3-2.5-8-2-10.5,1.3c-2.5,3.3-2,8,1.3,10.5c4.4,3.4,9.1,6.4,13.9,8.8v21l-10.9,3.5c-5.1-4.2-12-6-18.9-4.2l-45,11.7    c-11.8,3.1-18.9,15.1-15.8,26.9l1.4,5.5c-5.8,8.2-9.9,17.6-11.8,27.5L0.1,461.9c-0.8,4.1,1.9,8,6,8.8c0.5,0.1,1,0.1,1.4,0.1    c3.5,0,6.7-2.5,7.4-6.1l19.2-100.2c0.7-3.7,1.8-7.2,3.2-10.7c1.8,2.8,4.3,5.2,7.3,7c3.4,2,7.1,3,10.9,3c1.8,0,3.6-0.2,5.5-0.7    l23.8-6.2c5.6-1.4,10.3-5,13.2-9.9c2-3.4,3-7.2,3-11l3-0.8c1.7-0.5,3.4-1.1,4.9-2c10.7,15.1,28,24.1,46.8,24.1    c26.6,0,49.8-18.6,55.9-44l28.4,9.1c19.2,6.2,33.4,22.3,37.2,42.1l19.2,100.2c0.7,3.6,3.8,6.1,7.4,6.1c0.5,0,0.9,0,1.4-0.1    c4.1-0.8,6.7-4.7,6-8.8l-9.8-51.1h122.2c4.1,0,7.5-3.4,7.5-7.5s-3.4-7.5-7.5-7.5h-125l-6.5-34.1c-2.9-15.1-10.6-28.6-21.6-38.6    l30.3-9.8c6.1,25.4,29.3,44,55.9,44c26.6,0,49.8-18.6,55.9-44l28.4,9.1c19.2,6.2,33.4,22.3,37.2,42.1l6,31.3h-25.1    c-4.1,0-7.5,3.4-7.5,7.5s3.4,7.5,7.5,7.5h28l10.3,53.9c0.7,3.6,3.8,6.1,7.4,6.1c0.5,0,0.9,0,1.4-0.1    C510,470,512.6,466.1,511.9,462L511.9,462z M449.3,182.3c0,6.6-5.3,12-11.9,12.1v-23.5c0-0.2,0-0.5,0-0.7    C444,170.3,449.3,175.6,449.3,182.3L449.3,182.3z M426.6,237.1c5-8.7,8.5-18.1,10-27.7h0.6c2.2,0,4.3-0.3,6.3-0.7    C442.8,220.7,436.3,231.1,426.6,237.1L426.6,237.1z M290.4,170.8c0-31.6,22.2-58.4,52.6-64.7c0.8,29.8,25.3,53.9,55.3,53.9h23.3    c0.6,3.5,0.9,7.2,0.9,10.8v27.4c0,34.7-30.9,65.1-66,65.1s-66-30.4-66-65.1L290.4,170.8L290.4,170.8z M275.7,209.4h0.6    c1.5,9.6,4.9,19,10,27.7c-9.6-6-16.2-16.4-16.8-28.4C271.4,209.1,273.5,209.4,275.7,209.4L275.7,209.4z M275.4,170.8v23.5    c-6.6-0.2-11.9-5.5-11.9-12.1c0-6.6,5.3-12,11.9-12.1C275.4,170.4,275.4,170.6,275.4,170.8L275.4,170.8z M248.5,182.2    c0,6.6-5.3,12-11.9,12.1v-24.3C243.2,170.2,248.5,175.6,248.5,182.2L248.5,182.2z M213.5,119.6c-4.1,0-7.5,3.4-7.5,7.5v9.7    c-4.5-0.4-9.2-0.8-13.9-1.2v-12.1c0-4.1-3.4-7.5-7.5-7.5s-7.5,3.4-7.5,7.5v11.2c-4.7-0.2-9.4-0.3-14.1-0.4V123    c0-4.1-3.4-7.5-7.5-7.5s-7.5,3.4-7.5,7.5v11.4c-4.6,0.1-9.3,0.2-14.1,0.4v-11.2c0-4.1-3.4-7.5-7.5-7.5s-7.5,3.4-7.5,7.5v12.1    c-4.7,0.3-9.4,0.7-13.9,1.2v-9.7c0-4.1-3.4-7.5-7.5-7.5s-7.5,3.4-7.5,7.5v11.4c-3.1,0.4-6,0.9-8.7,1.3c-0.6,0.1-1.1-0.1-1.3-0.4    c-0.3-0.2-0.6-0.7-0.6-1.3l0.8-18.8c0-0.7,0.6-1.4,1.3-1.5c21.4-5,45.6-7.4,73.9-7.4s52.5,2.4,73.9,7.4c0.7,0.2,1.2,0.8,1.3,1.5    l0.8,18.8c0,0.7-0.3,1.1-0.6,1.3c-0.3,0.2-0.7,0.5-1.3,0.4c-2.7-0.5-5.7-0.9-8.7-1.3v-11.4C221,123,217.7,119.6,213.5,119.6    L213.5,119.6z M155.6,56.1c29.3,0,55.3,18.3,65.4,44.7c-19.5-3.6-41-5.3-65.4-5.3s-45.9,1.8-65.4,5.3    C100.2,74.4,126.3,56.1,155.6,56.1L155.6,56.1z M62.7,182.2c0-6.6,5.3-12,11.9-12.1v24.3C68,194.2,62.7,188.8,62.7,182.2    L62.7,182.2z M85,339.5c-0.9,1.5-2.3,2.6-4,3l-23.8,6.2c-1.7,0.4-3.5,0.2-5-0.7c-1.5-0.9-2.6-2.3-3-4L44.2,325    c-1-3.8,1.3-7.6,5.1-8.6l29.7-7.7l6.7,25.8C86.1,336.2,85.9,337.9,85,339.5L85,339.5z M100.1,320.8l-2.3,0.6l-4.3-16.4l0.8-0.2    c3.3-0.9,6.7,1.1,7.6,4.4l1.5,5.9c0.3,1.2,0.1,2.5-0.5,3.5C102.3,319.7,101.3,320.4,100.1,320.8L100.1,320.8z M155.6,342.4    c-15.7,0-30-8.5-37.4-22.4c0.6-2.9,0.5-5.8-0.3-8.7l-0.9-3.6l3.3-1.1v1.4c0,4.1,3.4,7.5,7.5,7.5c4.1,0,7.5-3.4,7.5-7.5v-32.5    c6.6,1.8,13.3,2.7,20.2,2.7c6.9,0,13.7-0.9,20.2-2.7v32.5c0,4.1,3.4,7.5,7.5,7.5s7.5-3.4,7.5-7.5v-1.4l6.3,2    C193,328.1,175.6,342.4,155.6,342.4L155.6,342.4z M244.5,308.2l-53.6-17.3v-21c8-4,15.5-9.4,22.1-16.1    c12.3-12.4,20.3-28.2,22.8-44.5h0.6c6.9,0,13.2-2.6,18-6.8v4.3c0,27.2,21.5,49.5,48.5,50.7c5.6,5.1,11.8,9.3,18.4,12.6v21    l-66.5,21.4C251.4,310.8,248,309.3,244.5,308.2L244.5,308.2z M356.4,342.4c-20.1,0-37.5-14.3-41.6-33.7l6.3-2v1.4    c0,4.1,3.4,7.5,7.5,7.5s7.5-3.4,7.5-7.5v-32.5c6.6,1.7,13.3,2.7,20.2,2.7s13.7-0.9,20.2-2.7v32.5c0,4.1,3.4,7.5,7.5,7.5    s7.5-3.4,7.5-7.5v-1.4l6.3,2C393.9,328.2,376.5,342.4,356.4,342.4L356.4,342.4z"/>
		<path class="st0" d="M326.9,190.5c4.1,0,7.5-3.4,7.5-7.5v-5.7c0-4.1-3.4-7.5-7.5-7.5s-7.5,3.4-7.5,7.5v5.7    C319.4,187.1,322.8,190.5,326.9,190.5z"/>
		<path class="st0" d="M385.9,190.5c4.1,0,7.5-3.4,7.5-7.5v-5.7c0-4.1-3.4-7.5-7.5-7.5s-7.5,3.4-7.5,7.5v5.7    C378.4,187.1,381.8,190.5,385.9,190.5z"/>
		<path class="st0" d="M133.6,182.9v-5.7c0-4.1-3.4-7.5-7.5-7.5s-7.5,3.4-7.5,7.5v5.7c0,4.1,3.4,7.5,7.5,7.5    S133.6,187.1,133.6,182.9z"/>
		<path class="st0" d="M192.6,182.9v-5.7c0-4.1-3.4-7.5-7.5-7.5s-7.5,3.4-7.5,7.5v5.7c0,4.1,3.4,7.5,7.5,7.5    S192.6,187.1,192.6,182.9z"/>
		<path class="st0" d="M193.3,383.1h-75.4c-4.1,0-7.5,3.4-7.5,7.5v72.5c0,4.1,3.4,7.5,7.5,7.5s7.5-3.4,7.5-7.5v-37h60.4v37    c0,4.1,3.4,7.5,7.5,7.5s7.5-3.4,7.5-7.5v-72.5C200.8,386.4,197.4,383.1,193.3,383.1z M125.4,411.1v-13h60.4v13H125.4z"/>
	</g>
</g>
</svg>