<?xml version="1.0" encoding="UTF-8"?>
<!-- Generator: Adobe Illustrator 23.1.0, SVG Export Plug-In . SVG Version: 6.00 Build 0)  -->
<svg version="1.1" id="Layer_1" xmlns="http://www.w3.org/2000/svg" xmlns:xlink="http://www.w3.org/1999/xlink" x="0px" y="0px" viewBox="0 0 512 512" style="enable-background:new 0 0 512 512;" xml:space="preserve">
<style type="text/css">
	.st0{fill-rule:evenodd;clip-rule:evenodd;fill:none;}
	.st1{fill:#002A6C;}
</style>
<g>
	<path class="st0" d="M269.6,174.3c0.3,0,144.6,87.8,158.5,95.8c4.9,2.9,8.5,7.2,10.5,12.1l63.4-23.7l-48.1-137.1l-52.5,10.5   L310.9,105c-12.4-3.7-22.6-4.7-34.5,2.1l-20.7,11.9l-50,28.9c-11.9,6.9-16,22.2-9.1,34c6.9,11.9,21.8,15.2,34,9.1   C241.4,185.8,258.3,178.3,269.6,174.3L269.6,174.3z"/>
	<path class="st0" d="M115.3,291.8c6.8-11.7,2.7-26.9-9-33.7c-11.7-6.8-26.9-2.7-33.7,9c-3.7,6.4-7.3,12.7-11,19.1   c-1,1.7-2,3.4-2.9,5.1c-6.8,11.7-2.7,26.9,9,33.7c11.7,6.8,26.9,2.7,33.7-9L115.3,291.8z"/>
	<path class="st0" d="M127.6,270.4c-4.1,7.1-8.2,14.3-12.4,21.4l-14,24.2c-1.7,3-3.5,6-5.2,9.1c-6.8,11.7-2.7,26.9,9,33.7   c11.7,6.8,26.9,2.7,33.7-9c1.2-2.1,2.5-4.3,3.7-6.4l24.2-41.9c1.2-2.1,2.5-4.3,3.7-6.4c6.8-11.7,2.7-26.9-9-33.7   C149.6,254.6,134.4,258.7,127.6,270.4L127.6,270.4z"/>
	<path class="st0" d="M166.6,301.5l-24.2,41.9c-6.8,11.7-2.7,26.9,9,33.7c11.7,6.8,26.9,2.7,33.7-9l5.1-8.8l14-24.2   c1.7-3,3.4-5.9,5.1-8.8c6.8-11.7,2.7-26.9-9-33.7C188.6,285.7,173.4,289.8,166.6,301.5L166.6,301.5z"/>
	<path class="st0" d="M204.3,335l-14,24.2c-6.8,11.7-2.7,26.9,9,33.7c11.4,6.6,26,3,33.1-8c0.2-0.3,0.4-0.7,0.6-1   c4.7-8.1,9.3-16.1,14-24.2c4.2-7.2,4.2-15.7,1-22.7c-2.1-4.4-5.5-8.3-10-10.9C226.2,319.2,211,323.3,204.3,335L204.3,335z"/>
</g>
<path class="st0" d="M204.3,335c6.8-11.7,21.9-15.8,33.7-9c4.5,2.6,7.9,6.5,10,10.9l46.6,26.9l24,13.9c11.7,6.8,26.9,2.7,33.7-9  c6.8-11.7,2.7-26.9-9-33.7l14.1,8.1c11.7,6.8,26.9,2.7,33.7-9c6.8-11.7,2.7-26.9-9-33.7l21.4,12.4c11.7,6.8,26.9,2.7,33.7-9  c3.9-6.8,4.2-14.8,1.5-21.6c-2-4.9-5.6-9.3-10.5-12.1c-13.9-8-158.2-95.8-158.5-95.8c-11.3,3.9-28.1,11.5-39,16.8  c-12.3,6.1-27.2,2.7-34-9.1c-6.9-11.9-2.7-27.2,9.1-34l50-28.9L235,107.1c-11.9-6.9-22.1-5.8-34.5-2.1l-90.4,26.9l-48.3-12.7  L10,256.5l51.5,29.7c3.7-6.4,7.3-12.7,11-19.1c6.8-11.7,21.9-15.8,33.7-9c11.7,6.8,15.8,21.9,9,33.7c4.1-7.1,8.2-14.3,12.4-21.4  c6.8-11.7,21.9-15.8,33.7-9c11.7,6.8,15.8,21.9,9,33.7c-1.2,2.1-2.5,4.3-3.7,6.4c6.8-11.7,21.9-15.8,33.7-9  c11.7,6.8,15.8,21.9,9,33.7C207.7,329.1,206,332.1,204.3,335L204.3,335z"/>
<path class="st0" d="M247.9,337c3.3,7.1,3.2,15.5-1,22.7c-4.7,8.1-9.3,16.1-14,24.2c-0.2,0.4-0.4,0.7-0.6,1l37.5,21.6  c11.7,6.8,26.9,2.7,33.7-9c6.8-11.7,2.7-26.9-9-33.7L247.9,337z"/>
<g>
	<path class="st1" d="M511.4,255.2l-48.1-137.1c-1.6-4.7-6.5-7.5-11.4-6.5l-50.1,10l-88.1-26.2c-12.7-3.8-26.6-6-42.3,3l-15.7,9.1   L240,98.5c-15.7-9.1-29.6-6.8-42.3-3l-87.8,26.1l-45.6-12c-5-1.3-10.1,1.3-11.9,6.1L0.6,253c-1.7,4.6,0.1,9.7,4.4,12.2l43.1,24.9   c-3.1,7.1-3.6,15-1.6,22.6c2.4,9,8.1,16.4,16.1,21.1c6.3,3.7,13.4,5.1,20.2,4.5c0.3,11.7,6.5,23,17.3,29.2   c10.1,5.8,21.9,6,31.7,1.5c2.8,6.8,7.8,12.8,14.7,16.8c8,4.6,17.3,5.8,26.3,3.4c2.6-0.7,5.1-1.7,7.5-3c3,6.4,7.8,11.7,14,15.3   c5.4,3.1,11.4,4.6,17.3,4.6c8.3,0,16.5-3,22.8-8.5l30.4,17.6c5.4,3.1,11.4,4.6,17.3,4.6c12,0,23.7-6.2,30.1-17.3   c2.7-4.6,4.1-9.6,4.5-14.5c7.2,3.2,15.3,3.9,23.1,1.8c9-2.4,16.4-8.1,21.1-16.1c3.2-5.5,4.7-11.5,4.6-17.5   c13.3,1.6,27-4.7,34.1-17.1c2.7-4.7,4.2-9.9,4.6-15c15.4,5.5,33.1-0.7,41.6-15.4c3.7-6.4,5.1-13.4,4.5-20.3l55.2-20.7   C510.6,265.9,513.2,260.3,511.4,255.2L511.4,255.2z M72.6,316.4c-3.4-1.9-5.8-5.1-6.8-8.9c-1-3.8-0.5-7.8,1.4-11.1l14-24.2   c1.9-3.4,5.1-5.8,8.9-6.8c3.8-1,7.8-0.5,11.1,1.4c7,4,9.4,13,5.4,20l-14,24.2c0,0,0,0,0,0C88.6,318.1,79.6,320.5,72.6,316.4   L72.6,316.4z M130.1,344.8c-4,7-13,9.4-20,5.4c-7-4-9.4-13-5.4-20l5.2-9.1c0,0,0,0,0,0l14-24.2c0,0,0,0,0,0l0,0c0,0,0,0,0,0   l12.3-21.4c1.9-3.4,5.1-5.8,8.9-6.8c3.8-1,7.8-0.5,11.1,1.4c3.4,1.9,5.8,5.1,6.8,8.9c1,3.8,0.5,7.8-1.4,11.1l-3.7,6.4c0,0,0,0,0,0   c0,0,0,0,0,0l-24.2,41.9c0,0,0,0,0,0l0,0c0,0,0,0,0,0L130.1,344.8z M176.5,363.1c-1.9,3.4-5.1,5.8-8.9,6.8c-3.8,1-7.8,0.5-11.1-1.4   c-7-4-9.4-13-5.4-20l0,0c0,0,0,0,0,0c0,0,0,0,0,0l24.2-41.9c0,0,0,0,0,0c4-7,13-9.4,20-5.4c3.4,1.9,5.8,5.1,6.8,8.9   c1,3.8,0.5,7.8-1.4,11.1l-5.1,8.8c0,0,0,0,0,0l-14,24.2c0,0,0,0,0,0c0,0,0,0,0,0L176.5,363.1z M204.3,384.3   c-3.4-1.9-5.8-5.1-6.8-8.9c-1-3.8-0.5-7.8,1.4-11.1l14-24.2c4-7,13-9.4,20-5.4c7,4,9.4,13,5.4,20l-14,24.2   C220.3,385.9,211.3,388.3,204.3,384.3z M294.9,392.5c-4,7-13,9.4-20,5.4l-28.8-16.6l9.6-16.6c1.8-3.1,3-6.3,3.8-9.6l30.1,17.4   c0,0,0,0,0,0s0,0,0,0l0,0C296.5,376.6,298.9,385.5,294.9,392.5L294.9,392.5z M443,269.9c-2.6-3.3-5.9-6.2-9.8-8.5   c-3.7-2.1-16.9-10.1-40.6-24.4c-4.7-2.9-10.9-1.3-13.7,3.4c-2.9,4.7-1.3,10.9,3.4,13.7c23.8,14.4,37.2,22.4,41,24.6   c7,4,9.4,13,5.4,20c-4,7-13,9.4-20,5.4L387,291.8c0,0,0,0,0,0l0,0l-79.6-45.9c-4.8-2.8-10.9-1.1-13.7,3.7   c-2.8,4.8-1.1,10.9,3.7,13.7l79.6,45.9c0,0,0,0,0,0c0,0,0,0,0,0l0,0c7,4.1,9.4,13,5.3,20c-4,7-13,9.4-20,5.4l-14.1-8.1c0,0,0,0,0,0   l0,0L278.4,286c-4.8-2.8-10.9-1.1-13.7,3.7c-2.8,4.8-1.1,10.9,3.7,13.7l69.9,40.3c0,0,0,0,0,0c7,4,9.4,13,5.4,20   c-1.9,3.4-5.1,5.8-8.9,6.8c-3.8,1-7.8,0.5-11.1-1.4l-24-13.9c0,0,0,0,0,0l0,0l-44.1-25.4c-2.9-5-7.1-9.3-12.5-12.4   c-6.4-3.7-13.5-5.1-20.3-4.5c-0.1-2.7-0.5-5.3-1.2-8c-2.4-9-8.1-16.4-16.1-21.1c-6.9-4-14.6-5.3-21.9-4.3c-0.2-1.9-0.5-3.8-1-5.7   c-2.4-9-8.1-16.4-16.1-21.1c-14.7-8.5-33-5-43.6,7.5c-2.9-4.3-6.7-8-11.4-10.7c-8-4.6-17.3-5.8-26.3-3.4c-9,2.4-16.4,8.1-21.1,16.1   l-6,10.4l-35.5-20.5L68,131.2l39.6,10.4c1.8,0.5,3.6,0.4,5.4-0.1l90.4-26.9c10.5-3.1,17.9-3.9,26.6,1.2l5.7,3.3l-35,20.2   c-16.7,9.6-22.4,31-12.8,47.7c9.3,16.1,29.6,21.8,47.1,13.1c9.4-4.7,23.2-10.8,33.5-14.8c7.6,4.6,24.5,14.8,36.6,22.1   c4.7,2.9,10.9,1.4,13.7-3.4c2.9-4.7,1.4-10.9-3.4-13.7c-11.6-7-21.8-13.2-29.1-17.6c-3.6-2.2-6.6-4-8.6-5.2   c-4.4-2.7-5.5-3.3-8.3-3.3c-1.1,0-2.2,0.2-3.3,0.6c-11.8,4.1-29.1,11.9-40.1,17.3c-8,3.9-17,1.7-20.9-5.2   c-4.1-7.1-1.7-16.3,5.5-20.4l70.7-40.8c8.8-5.1,16.1-4.3,26.6-1.2l90.4,26.9c1.6,0.5,3.2,0.5,4.8,0.2l44-8.8l42,119.6L443,269.9z"/>
	<path class="st1" d="M348.8,212.3L348.8,212.3c-5.5,0-10,4.5-10,10c0,5.5,4.5,10,10,10s10-4.5,10-10   C358.8,216.7,354.3,212.3,348.8,212.3z"/>
</g>
</svg>