<?xml version="1.0" encoding="UTF-8"?>
<!-- Generator: Adobe Illustrator 23.1.0, SVG Export Plug-In . SVG Version: 6.00 Build 0)  -->
<svg version="1.1" id="Layer_1" xmlns="http://www.w3.org/2000/svg" xmlns:xlink="http://www.w3.org/1999/xlink" x="0px" y="0px" viewBox="0 0 96 96" style="enable-background:new 0 0 96 96;" xml:space="preserve">
<style type="text/css">
	.st0{fill:#223268;}
	.st1{fill:#FFFFFF;}
</style>
<path class="st0" d="M81.28,32.27c-1.46-0.63-3.22-0.31-4.06,1.06c-0.68,1.1-1.5,1.22-2.59,1.18c-1.51-0.06-3.02-0.01-4.63-0.01  v-8.13c1.23,0,2.43-0.06,3.61,0.04c0.36,0.03,0.76,0.45,1.01,0.79c1.09,1.48,2.49,2.04,4.1,1.56c1.42-0.43,2.38-1.79,2.37-3.35  c-0.01-1.57-0.94-2.8-2.46-3.28c-1.5-0.47-2.88,0.1-3.97,1.49c-0.32,0.41-0.93,0.76-1.45,0.82c-1.02,0.13-2.08,0.04-3.09,0.04  c-1.23-5.37-2.69-6.83-7.46-7.34c0-1.05-0.08-2.14,0.04-3.21c0.05-0.4,0.5-0.83,0.87-1.12c1.38-1.05,1.9-2.45,1.39-3.99  c-0.49-1.49-1.73-2.38-3.33-2.37c-1.5,0.01-2.81,0.93-3.25,2.28c-0.49,1.52-0.03,3.14,1.36,4.02c1.91,1.21,0.61,2.89,0.99,4.42h-8.1  c0-1.91-0.04-3.78,0.04-5.64c0.01-0.34,0.5-0.71,0.85-0.96c1.39-1.03,1.94-2.49,1.46-3.98c-0.47-1.48-1.76-2.42-3.31-2.42  c-1.55,0-2.92,0.99-3.33,2.41c-0.45,1.54,0.14,2.95,1.45,4.02c0.47,0.38,0.86,1.12,0.91,1.72c0.13,1.55,0.04,3.12,0.04,4.81h-8.12  c0-1.09-0.07-2.18,0.04-3.25c0.04-0.36,0.47-0.74,0.81-1c1.45-1.07,2.01-2.56,1.49-4.11c-0.48-1.43-1.82-2.35-3.39-2.31  c-1.6,0.04-2.66,0.87-3.19,2.34c-0.55,1.53,0.07,2.99,1.5,4.1c0.41,0.32,0.72,0.94,0.8,1.47c0.13,0.86,0.04,1.76,0.04,2.18  c-1.97,0.98-3.96,1.5-5.24,2.75c-1.23,1.21-1.72,3.18-2.68,5.12c-0.88,0.04-2.17,0.41-3.22-1.26c-1.06-1.68-3.56-1.59-4.98-0.16  c-1.34,1.35-1.32,3.65,0.04,4.95c1.42,1.35,3.79,1.24,5.06-0.24c1.3-1.51,1.3-1.51,3.67-1.19v7.98c-1.54,0-3.1,0.05-4.64-0.04  c-0.34-0.02-0.71-0.5-0.97-0.84c-1.04-1.39-2.49-1.95-3.98-1.5c-1.44,0.45-2.47,1.8-2.48,3.29c-0.02,1.49,0.98,2.88,2.41,3.35  c1.49,0.49,3.11,0.02,3.96-1.44c0.5-0.85,1.09-0.97,1.92-0.94c1.15,0.05,2.3,0.03,3.46,0.06c0.09,0,0.18,0.09,0.52,0.26  c0,2.27,0.02,4.66-0.04,7.06c-0.01,0.26-0.5,0.71-0.78,0.72c-0.92,0.04-1.9,0.56-2.65-0.64c-1.21-1.94-2.78-2.23-4.68-1.35  c-1.69,0.78-1.81,2.19-1.7,3.67c0.11,1.4,1.08,2.24,2.38,2.63c1.46,0.44,2.72,0,3.65-1.16c0.51-0.63,0.86-1.39,1.05-1.71  c0.88,0.26,1.69,0.49,2.65,0.77c-0.02,1.81,0.43,3.77,2,4.98c1.43,1.09,3.22,1.71,5.27,2.75c0,0.88,0.06,2.39-0.04,3.89  c-0.03,0.39-0.49,0.83-0.86,1.11c-1.37,1.03-1.94,2.49-1.47,3.99c0.44,1.43,1.83,2.47,3.3,2.47c1.47,0.01,2.88-1.02,3.34-2.43  c0.48-1.49-0.12-2.95-1.41-4.03c-0.47-0.39-0.83-1.1-0.92-1.71c-0.14-1.08-0.04-2.2-0.03-3.3c0-0.15,0.05-0.31,0.1-0.6h8.01  c0,2.28,0.03,4.62-0.03,6.95c-0.01,0.3-0.45,0.63-0.76,0.86c-1.5,1.1-2.06,2.5-1.59,4.09c0.41,1.38,1.85,2.43,3.34,2.42  c1.53-0.01,2.83-0.97,3.3-2.45c0.49-1.53-0.09-2.95-1.59-4.07c-0.33-0.25-0.72-0.68-0.73-1.03c-0.07-2.24-0.03-4.48-0.03-6.81h8.08  c0,1.59,0.07,3.19-0.05,4.78c-0.03,0.37-0.65,0.72-1.04,1.03c-1.62,1.26-1.87,3.66-0.52,5.15c1.33,1.47,3.66,1.51,5.05,0.09  c1.46-1.48,1.39-3.92-0.34-5.1c-0.98-0.67-1.24-1.37-1.17-2.44c0.07-1.14,0.02-2.29,0.02-3.39c5.09-0.98,6.64-2.46,7.27-6.69  c-0.01-0.14-0.01-0.29,0.04-0.41c0.06-0.16,0.09-0.33,0.12-0.5c0.04-0.5,0.02-1.01,0.02-1.52c0-0.11,0.04-0.2,0.06-0.3  c-0.04,0-0.08-0.01-0.13-0.01v-8c2.18,0,4.36,0.01,6.54-0.01c0.59-0.01,1.18-0.12,1.77-0.19c0,0.19,0.01,0.38-0.02,0.56  c-0.25,1.81,0.29,2.34,2.14,2.07c1.53-0.23,2.74-1.49,2.93-3.07C83.56,34.36,82.67,32.87,81.28,32.27z M77.59,23.98  c0.6,0.13,1.37,0.92,1.49,1.53c0.17,0.92-0.62,1.61-1.56,1.4c-0.61-0.13-1.1-0.8-2.03-1.54C76.47,24.69,77.12,23.88,77.59,23.98z   M28.64,25.42c-0.01,0.07-0.02,0.14-0.04,0.2c-0.02,0.14-0.07,0.27-0.14,0.4c-0.16,0.64-0.74,1.05-1.48,0.88  c-0.57-0.13-1.31-0.94-1.35-1.5c0-0.04,0.01-0.09,0.01-0.14c-0.11-0.36-0.06-0.76,0.14-1.08c0.06-0.55,0.43-1.07,1.15-1.07  c0.35,0,0.6,0.13,0.8,0.32c0.54,0.11,0.84,0.54,0.89,1.02C28.74,24.75,28.76,25.1,28.64,25.42z M24.7,36.9  c-0.47,0.09-1.11-0.72-2.08-1.42c0.95-0.73,1.56-1.56,2.03-1.48c0.6,0.1,1.09,0.92,1.63,1.43C25.77,35.95,25.31,36.78,24.7,36.9z   M27.12,46.93c-0.91,0.2-1.67-0.52-1.52-1.5c0.1-0.62,0.73-1.16,1.43-2.2c0.72,1.03,1.48,1.63,1.43,2.16  C28.41,45.97,27.69,46.81,27.12,46.93z M60.25,9.74C60.18,9.27,61,8.66,61.42,8.12c0.23,0,0.45,0.01,0.68,0.01  c0.36,0.63,1.07,1.3,1,1.87c-0.06,0.53-0.95,0.97-1.47,1.45C61.14,10.88,60.35,10.36,60.25,9.74z M62.73,19.25  c3.36-0.11,5.6,2.26,4.94,5.24H65.3v1.8c0.89,0.06,1.7,0.11,2.52,0.16v8h-3.81c0.11-1.32-0.72-1.47-1.75-1.59  c-1.6-0.18-2.19-1.77-1.23-3.11c0.3-0.41,0.58-0.84,0.85-1.23c-0.44-0.54-0.79-0.98-1.26-1.56C63.6,25.05,62.39,22,62.73,19.25z   M59.36,42.09c-1.3,1.96-1.93-0.27-2.88-0.2c-1.97,1.03-4.78,1.39-4.09,4.92c-0.77-1.12-1.26-2.22-1.8-3.29  c-0.09-0.18-0.44-0.23-0.67-0.33c-1.05-0.43-2.11-0.86-3.22-1.31c-0.54,0.37-1.14,0.78-1.75,1.19c-1.87-1.24,0.36-1.87,0.29-2.73  c-0.41-0.96-0.9-1.84-1.17-2.78c-0.23-0.81-0.56-1.21-1.46-1.28c-0.42-0.03-0.81-0.56-1.21-0.86c0.42-0.29,0.83-0.58,1.25-0.87  c0.42-0.28,1.02-0.46,1.22-0.86c0.54-1.01,0.9-2.1,1.26-2.98c0.19-1.07-2.09-1.71-0.17-2.9c0.66,0.44,1.3,0.87,1.86,1.24  c0.78-0.39,1.4-0.83,2.09-1.03c1.11-0.31,2.11-0.57,1.99-2.08c-0.02-0.23,0.5-0.51,0.77-0.76c0.27,0.3,0.58,0.57,0.8,0.91  c0.34,0.51,0.49,1.28,0.94,1.55c0.97,0.57,2.1,0.9,3.26,1.36c0.79,0.01,1.43-2.17,2.74-0.14c-1.54,1.05-1.39,2.23-0.44,3.49  c0.12,0.16,0.21,0.38,0.24,0.58c0.11,1.08,0.58,1.7,1.77,1.72c0.32,0.01,0.62,0.5,0.93,0.77c-0.29,0.29-0.55,0.65-0.89,0.85  c-0.47,0.28-1.43,0.39-1.46,0.66C59.35,38.69,56.78,40.34,59.36,42.09z M49.91,8.03c0-0.23-0.01-0.45-0.01-0.68  c0.55-0.42,1.16-1.22,1.64-1.15c0.62,0.09,1.14,0.88,1.7,1.37c-0.48,0.52-0.93,1.4-1.46,1.46C51.2,9.1,50.53,8.39,49.91,8.03z   M50.63,19.26c0.08,0.68,0.14,1.24,0.21,1.82h1.7c0.07-0.67,0.13-1.23,0.21-1.94c2.4,0,4.75-0.01,7.1,0.02  c0.26,0,0.76,0.25,0.75,0.36c-0.12,1.72-0.26,3.45-0.53,5.16c-0.05,0.33-0.63,0.64-1.02,0.84c-0.55,0.27-1.22,0.31-1.72,0.63  c-1.34,0.86-2.86,0.25-3.1-1.32c-0.08-0.51-0.16-1.01-0.25-1.54h-4.64c-0.1,0.65-0.22,1.16-0.26,1.67  c-0.09,1.35-1.37,1.81-2.08,1.61c-1.41-0.4-3.2-1.06-3.82-2.18c-0.77-1.38-0.53-3.34-0.73-5.12H50.63z M40.6,11.26  c-0.01,0-0.03-0.01-0.04-0.01c0,0,0,0,0,0c-0.05-0.02-0.25-0.1-0.29-0.12c0,0,0,0-0.01,0c0,0-0.01,0-0.01-0.01c0,0,0,0,0,0  c-0.01-0.01-0.24-0.18-0.25-0.19c0,0,0,0-0.01,0c0,0-0.01-0.01-0.01-0.01c0,0,0,0,0,0c-0.01-0.01-0.18-0.24-0.19-0.25  c0,0,0,0,0-0.01c0,0-0.01-0.01-0.01-0.01c0,0,0,0,0,0c-0.02-0.04-0.11-0.25-0.12-0.29c0,0,0,0,0-0.01c0-0.01,0-0.01,0-0.02  c0-0.01,0-0.01,0-0.02c-0.01-0.05-0.02-0.12-0.03-0.18c-0.06-0.04-0.12-0.08-0.18-0.11c0.05-0.04,0.1-0.09,0.16-0.13  c0-0.02,0-0.03,0-0.05c0-0.22,0.06-0.42,0.17-0.61l0.19-0.24c0.15-0.15,0.33-0.25,0.53-0.31c0.11-0.01,0.21-0.03,0.32-0.04  c0.07,0,0.15,0.01,0.21,0.02c0.19-0.13,0.36-0.21,0.52-0.19c0.61,0.08,1.13,0.89,1.7,1.38c-0.47,0.53-0.91,1.45-1.43,1.5  c-0.15,0.01-0.3-0.02-0.46-0.09c-0.11,0.04-0.23,0.07-0.36,0.06c-0.01,0-0.02,0-0.03,0c0,0-0.01,0-0.01,0c0,0-0.01,0-0.01,0  C40.85,11.3,40.67,11.27,40.6,11.26z M35.49,26.45c0.93-0.07,1.74-0.12,2.56-0.18v-1.86h-2.55c-0.24-3.17,1.85-5.28,5.13-5.15  c0.37,2.76-0.91,5.86,2.11,7.75c-0.53,0.6-0.9,1.03-1.31,1.5c0.33,0.46,0.63,0.88,0.92,1.3c0.9,1.28,0.22,2.74-1.32,3.1  c-0.72,0.17-1.35,0.69-2.02,1.05c0.06,0.14,0.12,0.27,0.18,0.41h-3.7V26.45z M43.11,62.29c0.05,0.58-0.68,1.22-1.07,1.83  c-0.23,0-0.45-0.01-0.68-0.01c-0.42-0.55-1.23-1.18-1.15-1.64c0.11-0.6,0.87-1.39,1.46-1.5C42.09,60.89,43.07,61.78,43.11,62.29z   M53.12,64.51c0.06,0.59-0.66,1.26-1.32,2.36c-0.79-1-1.62-1.59-1.56-2.09c0.07-0.6,0.81-1.44,1.39-1.57  C52.04,63.12,53.07,64,53.12,64.51z M54.48,51.65c-0.17,0.11-0.39,0.17-0.64,0.16c-0.79-0.04-1.57-0.17-2.35-0.29  c-0.04,0.01-0.08,0.03-0.12,0.04c-0.48,0.13-0.95,0.16-1.4,0.09c-0.01,0-0.03,0.01-0.04,0.01c-1.43,0.09-2.88,0.1-4.39,0.09  c-1.61,0.28-3.92,0.65-5.47-0.23c-0.23,0.15-0.47,0.23-0.77,0.08c-1.05-0.51-2.1-1.09-2.98-1.85c-1.57-1.36-0.78-3.32-1-5.02  l-0.01,0.08v-8.34h4.02c0.05,0.24,0.09,0.47,0.14,0.71c0.51-0.01,1.02,0.26,1.19,0.8c1.87,0.34,2.18,1.15,1.88,3.19  c-0.15,1.04-0.08,2.11,0.01,3.19c0.47,0.46,0.97,0.9,1.5,1.3c0.05,0.01,0.1,0.02,0.15,0.03c0.6-0.31,1.19-0.61,1.77-0.95  c0.07-0.04,0.14-0.07,0.2-0.1c0.01-0.02,0.02-0.04,0.03-0.07c0.08-0.14,0.18-0.25,0.31-0.34c0.12-0.11,0.25-0.18,0.41-0.22  c0.17-0.05,0.35-0.07,0.53-0.08c0.07-0.01,0.14-0.01,0.2,0c0.13,0.01,0.26,0.03,0.39,0.05c0.03,0.01,0.05,0.01,0.08,0.02  c0.07,0.02,0.15,0.06,0.22,0.09c0.07,0.03,0.14,0.05,0.21,0.09c0.02,0.01,0.05,0.03,0.07,0.04c0.1,0.07,0.2,0.15,0.29,0.23  c0,0,0,0,0.01,0.01c0.14,0.03,0.27,0.08,0.38,0.15c-0.06-0.12-0.13-0.24-0.19-0.36c0.15,0.17,0.28,0.35,0.41,0.53  c0.03,0.04,0.06,0.07,0.09,0.11c0.2,0.29,0.37,0.59,0.48,0.91c0.18,0.48,0.26,1.01,0.36,1.57c1.15,0.09,2.36,0.1,3.4-0.29  c0.07-0.03,0.15-0.03,0.22-0.04c0.08-0.21,0.12-0.46,0.15-0.77c0.19-2.01,1.58-2.54,3.26-1.4c0.44,0.3,1.15,0.22,1.58,0.53  c0.63,0.45,1.5,1.03,1.6,1.65c0.24,1.46,0.08,2.99,0.08,4.58H54.48z M63.12,62.41c-0.12,0.57-0.92,1.31-1.48,1.37  c-0.53,0.05-1.14-0.69-2.17-1.39c1.02-0.73,1.54-1.37,2.15-1.48C62.6,60.74,63.32,61.49,63.12,62.41z M67.81,46.74  c0.01,3.15-2.04,5.13-5.15,4.85c0-1.17,0-2.36,0-3.55c0.01-1.27-0.07-2.69-1.28-3.25c-1.05-0.49-0.85-0.98-0.39-1.5  c0.69-0.79,0.6-1.4,0.01-2.19c-0.97-1.31-0.28-2.73,1.3-3.11c0.73-0.18,1.37-0.7,2.05-1.07c-0.06-0.15-0.12-0.29-0.19-0.44h3.63v8  c-0.05,0-0.1,0-0.15,0.01C67.9,45.21,67.95,45.99,67.81,46.74z M80.78,36.62c-0.83,0.81-1.68,0.25-2.41-0.4c0-1,0.02-2.1,1.29-2.26  c0.48-0.06,1.37,0.38,1.49,0.76C81.32,35.29,81.18,36.23,80.78,36.62z"/>
<path class="st0" d="M37.45,78.86c2.34-0.33,4.46-0.64,6.58-0.92c3.23-0.44,5.37-2.49,5.77-5.69c0.06-0.48-0.4-1.02-0.61-1.53  c-0.44,0.34-1.18,0.61-1.26,1.02c-0.63,3.14-2.71,4.1-5.65,4.41c-5.16,0.54-10.28,1.35-15.42,2.05c-3.73,0.51-5.25-0.79-5.4-4.55  c-0.03-0.71-0.21-1.42-0.35-2.27c1.15-0.16,2.27-0.19,3.3-0.5c0.49-0.15,0.82-0.83,1.22-1.26c-0.5-0.25-1-0.7-1.5-0.71  c-0.98-0.02-1.98,0.19-2.96,0.35c-1.26,0.2-1.85-0.29-1.95-1.57c-0.34-4.16-0.36-4.16-4.53-5.16c-3.49-0.84-3.72-1.24-1.46-3.93  c2.66-3.16,3.43-6.72,3.04-10.7c-0.16-1.67-0.11-3.35-0.17-5.03c-0.18-5.1,1.71-9.41,4.99-13.19c0.24-0.28,0.63-0.51,0.71-0.83  c0.13-0.53,0.07-1.11,0.09-1.67c-0.52,0.07-1.15-0.01-1.52,0.26c-0.58,0.41-1.01,1.05-1.47,1.63c-3.5,4.4-5.32,9.31-4.77,15.01  c0.19,2.02,0.11,4.06,0.18,6.09c0.1,2.72-0.94,4.99-2.67,7.02c-0.51,0.6-1,1.22-1.39,1.9c-1.09,1.89-0.24,4.16,1.81,4.89  c0.44,0.16,0.91,0.24,1.37,0.36c1.11,0.29,2.54,0.26,3.25,0.96c0.6,0.6,0.31,2.04,0.52,3.09c0.12,0.6,0.47,1.15,0.69,1.73  c0.5,1.33,1.34,2.64,1.41,4c0.24,4.34,3.12,6.83,7.42,6.18c2.84-0.43,5.69-0.76,8.64-1.15c0.65,2.33,1.24,4.55,1.87,6.76  c0.84,2.97,2.85,4.5,5.95,4.65c7.48,0.35,14.3-1.63,20.55-5.7c2.98-1.94,3.84-4.45,2.7-7.86c-0.9-2.68-1.94-5.31-1.81-8.24  c0.02-0.38-0.58-0.79-0.9-1.18c-0.35,0.37-1.01,0.76-0.99,1.12c0.1,1.82,0.25,3.65,0.61,5.43c0.28,1.43,0.91,2.78,1.33,4.19  c0.53,1.75,0.1,3.29-1.38,4.32c-6.09,4.23-12.82,6.34-20.28,5.83c-2.09-0.14-3.25-1.14-3.81-3.15  C38.6,83.22,38.06,81.14,37.45,78.86z"/>
<path class="st1" d="M40.74,38.36c0.01,1.26,0.22,2.49,0.39,3.73c0.07,0.49,0.15,0.98,0.17,1.47c0,0.17,0,0.35-0.01,0.53  c0.4-0.16,0.88-0.13,1.26,0.25c0.01,0.01,0.02,0.02,0.03,0.03c-0.09-1.08-0.16-2.15-0.01-3.19c0.29-2.04-0.01-2.85-1.88-3.19  C40.71,38.11,40.74,38.22,40.74,38.36z"/>
<path class="st1" d="M39.96,48.6c-0.01-0.35,0.11-0.7,0.34-0.93c0.08-0.08,0.16-0.12,0.25-0.16c-0.73-0.28-1.32-0.8-1.56-1.81  c-0.21-0.91-0.12-1.87-0.19-2.8c-1.42-0.01-1.51-2.03-0.31-2.35c-0.09-0.72-0.16-1.45-0.17-2.19c-0.01-0.77,0.57-1.15,1.16-1.16  c-0.05-0.24-0.09-0.47-0.14-0.71h-4.02c0,2.84,0,5.59,0,8.34c0.01,0,0.01,0,0.02,0c0.19,1.68-0.55,3.6,1,4.94  c0.87,0.76,1.93,1.34,2.98,1.85c0.29,0.14,0.54,0.06,0.77-0.08c-0.32-0.18-0.62-0.4-0.86-0.7c-0.31-0.39-0.44-0.88-0.26-1.31  C39.06,49.05,39.38,48.66,39.96,48.6z M36.29,46.34c-0.42-0.13-0.63-0.97-0.92-1.52c0.81-0.13,1.62-0.25,2.55-0.4  C37.68,45.59,37.64,46.74,36.29,46.34z"/>
<path class="st1" d="M62.73,19.25c-0.34,2.75,0.87,5.79-2.12,7.7c0.47,0.58,0.82,1.02,1.26,1.56c-0.27,0.4-0.55,0.82-0.85,1.23  c-0.96,1.34-0.37,2.92,1.23,3.11c1.03,0.12,1.86,0.26,1.75,1.59c1.3,0,2.49,0,3.81,0c0-2.64,0-5.23,0-8  c-0.82-0.05-1.62-0.1-2.52-0.16c0-0.6,0-1.14,0-1.8c0.86,0,1.63,0,2.37,0C68.32,21.51,66.09,19.14,62.73,19.25z"/>
<path class="st1" d="M40.63,19.26c-3.28-0.13-5.36,1.97-5.13,5.15c0.8,0,1.61,0,2.55,0c0,0.68,0,1.22,0,1.86  c-0.82,0.06-1.63,0.11-2.56,0.18c0,2.64,0,5.22,0,7.93c1.25,0,2.48,0,3.7,0c-0.06-0.14-0.12-0.27-0.18-0.41  c0.67-0.36,1.31-0.88,2.02-1.05c1.54-0.36,2.22-1.83,1.32-3.1c-0.3-0.42-0.59-0.84-0.92-1.3c0.41-0.47,0.78-0.9,1.31-1.5  C39.72,25.12,41,22.02,40.63,19.26z"/>
<path class="st1" d="M49.91,8.03c0.63,0.37,1.29,1.07,1.87,1c0.54-0.06,0.98-0.94,1.46-1.46c-0.56-0.49-1.08-1.28-1.7-1.37  c-0.48-0.07-1.09,0.74-1.64,1.15C49.9,7.58,49.9,7.8,49.91,8.03z"/>
<path class="st1" d="M22.63,35.48c0.97,0.7,1.61,1.51,2.08,1.42c0.6-0.12,1.06-0.95,1.59-1.47c-0.54-0.51-1.03-1.33-1.63-1.43  C24.19,33.92,23.58,34.75,22.63,35.48z"/>
<path class="st1" d="M61.42,8.12C61,8.66,60.18,9.27,60.25,9.74c0.09,0.62,0.88,1.14,1.37,1.71c0.52-0.48,1.41-0.92,1.47-1.45  c0.07-0.58-0.63-1.24-1-1.87C61.87,8.12,61.65,8.12,61.42,8.12z"/>
<path class="st1" d="M27.03,43.24c-0.7,1.04-1.34,1.58-1.43,2.2c-0.15,0.97,0.61,1.7,1.52,1.5c0.56-0.12,1.29-0.96,1.34-1.53  C28.51,44.87,27.76,44.27,27.03,43.24z"/>
<path class="st1" d="M42.04,64.12c0.39-0.61,1.11-1.25,1.07-1.83c-0.04-0.51-1.02-1.4-1.43-1.33c-0.59,0.11-1.36,0.9-1.46,1.5  c-0.08,0.47,0.73,1.09,1.15,1.64C41.59,64.11,41.82,64.11,42.04,64.12z"/>
<path class="st1" d="M51.8,66.87c0.66-1.1,1.37-1.77,1.32-2.36c-0.05-0.51-1.08-1.39-1.48-1.3c-0.59,0.13-1.33,0.97-1.39,1.57  C50.18,65.28,51.01,65.88,51.8,66.87z"/>
<path class="st1" d="M59.47,62.39c1.04,0.7,1.64,1.44,2.17,1.39c0.56-0.06,1.36-0.8,1.48-1.37c0.19-0.92-0.53-1.67-1.5-1.5  C61.01,61.02,60.49,61.66,59.47,62.39z"/>
<circle class="st1" cx="61.68" cy="9.78" r="1.81"/>
<circle class="st1" cx="77.29" cy="25.19" r="1.81"/>
<circle class="st1" cx="79.8" cy="35.45" r="1.81"/>
<circle class="st1" cx="27.02" cy="25.03" r="1.81"/>
<circle class="st1" cx="41.32" cy="9.89" r="1.81"/>
<circle class="st1" cx="51.65" cy="7.61" r="1.81"/>
<circle class="st0" cx="51.57" cy="35.45" r="2.68"/>
<circle class="st1" cx="61.9" cy="62.33" r="1.81"/>
<circle class="st1" cx="41.39" cy="62.54" r="1.81"/>
<circle class="st1" cx="51.68" cy="65.04" r="1.81"/>
<circle class="st1" cx="24.46" cy="35.45" r="1.81"/>
<circle class="st1" cx="27.02" cy="45.1" r="1.81"/>
</svg>