<?xml version="1.0" encoding="UTF-8"?>
<!-- Generator: Adobe Illustrator 23.1.0, SVG Export Plug-In . SVG Version: 6.00 Build 0)  -->
<svg version="1.1" id="Layer_1" xmlns="http://www.w3.org/2000/svg" xmlns:xlink="http://www.w3.org/1999/xlink" x="0px" y="0px" viewBox="0 0 96 96" style="enable-background:new 0 0 96 96;" xml:space="preserve">
<style type="text/css">
	.st0{fill:#223268;}
	.st1{fill:#2E3192;}
	.st2{fill:#FFFFFF;}
</style>
<path class="st0" d="M48.31,47.88c-1.64,0-3.27,0.04-4.91-0.02c-0.65-0.02-1.32-0.19-1.94-0.41c-1.03-0.38-1.47-1.15-1.4-2.24  c0.03-0.49,0.04-0.99,0.1-1.47c0.15-1.29-0.02-2.52-0.6-3.68c-0.91-1.82-1.88-3.62-2.81-5.44c-0.7-1.36-1.52-2.68-2.06-4.11  c-1.58-4.25-0.98-8.34,1.44-12.09c3-4.64,7.38-6.72,12.89-6.47c2.37,0.11,4.62,0.63,6.69,1.81c2.92,1.65,4.79,4.19,5.98,7.27  c1.6,4.16,1.05,8.15-1.01,12.01c-1.18,2.21-2.33,4.44-3.43,6.68c-0.73,1.5-0.73,3.11-0.48,4.73c0.06,0.37,0.07,0.75,0.06,1.13  c-0.03,1.08-0.46,1.69-1.51,1.95c-0.77,0.19-1.57,0.32-2.35,0.35C51.41,47.92,49.86,47.88,48.31,47.88  C48.31,47.88,48.31,47.88,48.31,47.88z M37.59,19.6c-1.31,2.37-2.26,4.79-1.97,7.56c0.34,3.28,2.07,6.38,3.06,7.2  C36.2,29.59,35.79,24.68,37.59,19.6z"/>
<path class="st0" d="M20.98,73.82c-2.11-1.32-2.93-3.31-3.1-5.63c-0.15-2.01,0.12-3.93,1.2-5.68c0.89-1.44,2.12-2.51,3.71-3.07  c0.78-0.28,1.63-0.36,2.46-0.49c3.65-0.55,7.3-1.08,10.96-1.6c0.16-0.02,0.36-0.01,0.48,0.08c2.35,1.77,5.03,2.71,7.92,3.11  c3.63,0.5,7.17,0.15,10.57-1.26c2.23-0.93,4.18-2.25,5.54-4.31c0.21-0.32,0.41-0.67,0.56-1.03c0.12-0.29,0.32-0.41,0.6-0.39  c0.53,0.04,1.06,0.11,1.59,0.19c4.14,0.6,8.28,1.21,12.42,1.81c0.17,0.03,0.34,0.07,0.51,0.12c1.23,0.38,1.56,1.72,0.59,2.58  c-0.35,0.31-0.84,0.53-1.3,0.64c-4.9,1.16-9.81,2.29-14.72,3.43c-6.1,1.42-12.21,2.84-18.32,4.25c-0.34,0.08-0.72,0.05-1.06-0.02  c-5.51-1.22-11.02-2.44-16.53-3.68c-1.2-0.27-2.19,0.08-2.95,1.01c-2,2.45-0.93,6.66,2,7.81c0.87,0.34,1.8,0.54,2.71,0.79  c4.95,1.36,9.91,2.72,14.87,4.07c0.29,0.08,0.63,0.09,0.93,0.02c8.27-1.95,16.53-3.92,24.8-5.88c2.7-0.64,5.41-1.29,8.11-1.94  c0.65-0.16,1.22-0.03,1.65,0.49c0.42,0.52,0.32,1.12,0.1,1.69c-0.19,0.49-0.67,0.63-1.11,0.75c-0.98,0.27-1.96,0.52-2.94,0.76  c-4.51,1.11-9.02,2.21-13.54,3.32c-5.68,1.39-11.36,2.78-17.04,4.15c-0.32,0.08-0.69,0.05-1.01-0.04  c-5.14-1.36-10.27-2.73-15.4-4.09c-0.4-0.11-0.83-0.15-1.24-0.23c-1.34-0.27-2.32,0.3-3.05,1.36c-0.94,1.37-1.09,2.94-0.99,4.54  c0.13,1.99,1.21,3.19,3.14,3.72c5.9,1.62,11.79,3.29,17.69,4.92c0.25,0.07,0.55,0.06,0.8,0c8.29-2.09,16.59-4.2,24.88-6.31  c2.64-0.67,5.27-1.35,7.91-2.03c1.18-0.31,2.15,0.48,2.06,1.68c-0.04,0.56-0.34,0.94-0.85,1.1c-0.95,0.3-1.91,0.58-2.88,0.82  c-9.81,2.46-19.63,4.92-29.44,7.37c-0.07,0.02-0.15,0.02-0.21,0.05c-1.33,0.58-2.63,0.29-3.96-0.08c-4.54-1.29-9.1-2.51-13.65-3.76  c-1.19-0.32-2.38-0.64-3.56-0.97c-2.93-0.81-4.88-3.18-4.99-6.23c-0.04-1.12,0.05-2.26,0.25-3.36  C18.46,76.5,19.34,74.92,20.98,73.82z"/>
<path class="st0" d="M41.75,52.61c-0.31-0.34-0.64-0.61-0.86-0.95c-0.36-0.57-0.25-1.12,0.26-1.56c0.52-0.44,1.13-0.73,1.82-0.73  c3.26-0.02,6.52-0.03,9.78-0.01c0.63,0,1.28,0.09,1.87,0.29c0.38,0.12,0.75,0.45,0.97,0.79c0.43,0.66,0.21,1.37-0.45,1.81  c-0.14,0.1-0.29,0.18-0.45,0.27c0.03,0.05,0.05,0.09,0.08,0.12c1.09,0.93,0.93,2.14-0.41,2.71c-0.42,0.18-0.92,0.22-1.39,0.25  c-0.28,0.02-0.41,0.07-0.47,0.35c-0.13,0.59-0.31,1.18-0.43,1.77c-0.1,0.48-0.4,0.72-0.84,0.73c-1.96,0.02-3.91,0.03-5.87,0.01  c-0.45,0-0.78-0.24-0.89-0.73c-0.13-0.59-0.33-1.17-0.46-1.76c-0.06-0.28-0.19-0.34-0.47-0.38c-0.54-0.07-1.11-0.13-1.58-0.37  c-1.18-0.59-1.26-1.68-0.27-2.54C41.72,52.65,41.74,52.62,41.75,52.61z"/>
<path class="st1" d="M49.28,7.57c-0.69,0-1.31,0-2,0c0.38-1.88,0.76-3.72,1.13-5.57c0.03,0,0.06,0,0.1,0  C48.77,3.84,49.02,5.67,49.28,7.57z"/>
<path class="st0" d="M31.48,22.5c-0.19,0.67-0.35,1.28-0.54,1.94c-1.72-0.85-3.39-1.68-5.07-2.51c0.01-0.03,0.02-0.06,0.02-0.09  C27.74,22.05,29.57,22.27,31.48,22.5z"/>
<path class="st1" d="M66.35,12.22c-1.15,1.46-2.3,2.92-3.5,4.43c-0.44-0.52-0.85-1.01-1.31-1.55c1.6-1,3.17-1.98,4.74-2.96  C66.31,12.17,66.33,12.2,66.35,12.22z"/>
<path class="st1" d="M29.49,12.11c1.57,0.99,3.15,1.99,4.76,3c-0.43,0.52-0.84,1-1.28,1.52c-1.2-1.51-2.38-2.99-3.55-4.46  C29.44,12.15,29.47,12.13,29.49,12.11z"/>
<path class="st1" d="M37.79,4.68c1.01,1.56,2.03,3.12,3.07,4.73c-0.61,0.29-1.19,0.57-1.81,0.87c-0.45-1.89-0.9-3.72-1.34-5.56  C37.74,4.7,37.76,4.69,37.79,4.68z"/>
<path class="st0" d="M59.02,4.78c-0.43,1.8-0.87,3.61-1.32,5.48c-0.61-0.29-1.18-0.55-1.8-0.84c1.02-1.58,2.02-3.12,3.01-4.67  C58.95,4.76,58.99,4.77,59.02,4.78z"/>
<path class="st1" d="M70.58,21.9c-1.69,0.84-3.38,1.68-5.11,2.55c-0.18-0.66-0.34-1.27-0.52-1.94c1.9-0.23,3.75-0.45,5.6-0.68  C70.56,21.85,70.57,21.87,70.58,21.9z"/>
<path class="st2" d="M37.59,19.6c-1.8,5.08-1.39,9.99,1.09,14.76c-0.99-0.82-2.72-3.92-3.06-7.2C35.33,24.39,36.28,21.96,37.59,19.6  z"/>
</svg>