<?xml version="1.0" encoding="UTF-8"?>
<!-- Generator: Adobe Illustrator 23.1.0, SVG Export Plug-In . SVG Version: 6.00 Build 0)  -->
<svg version="1.1" id="Layer_1" xmlns="http://www.w3.org/2000/svg" xmlns:xlink="http://www.w3.org/1999/xlink" x="0px" y="0px" viewBox="0 0 96 96" style="enable-background:new 0 0 96 96;" xml:space="preserve">
<style type="text/css">
	.st0{fill:#223268;}
</style>
<path class="st0" d="M36.29,53.68c-1.61-3.58-1.35-6.48,0.86-7.95c0.72-0.48,1.63-0.67,2.46-0.68c5.52-0.05,11.03-0.04,16.55-0.01  c3.84,0.02,5.5,3.48,3.81,7.78c-0.17,0.42-0.24,1.14-0.06,1.5c1.13,2.37,0.89,4.53-0.49,6.65c1.58,2.38,1.66,4.82,0.04,7.35  c1.42,2.39,1.7,4.84-0.01,7.37c1.34,2.28,1.72,4.65,0.22,7.12c-0.12,0.19,0.07,0.77,0.21,1.1c1.84,4.34,0.18,7.92-3.73,7.93  c-5.33,0.02-10.66-0.01-15.99,0.02c-1.78,0.01-3.48-0.13-4.43-2.41c-0.94-2.25-0.48-4.32,0.66-6.22c-1.1-1.61-2.39-1.71-3.66-0.28  c0.31,0.87,0.72,1.72,0.91,2.64c0.64,3.1-0.85,5.98-3.38,6.05c-6.06,0.16-12.13,0.18-18.2,0.02c-2.94-0.08-4.45-3.8-3.27-7.27  C9.02,83.64,9,82.56,8.77,81.8c-0.64-2.16-0.42-4.06,0.73-5.95c-0.23-0.5-0.5-1-0.71-1.53c-1.3-3.28,0.46-7,3.41-7.07  c3.73-0.08,7.47-0.02,11.36-0.02c0.52-3.99,1.66-7.76,4.43-9.72C30.53,55.72,33.51,54.91,36.29,53.68z M34.53,57.09  c-4.96-0.02-9.06,5.1-9.03,11.27c0.02,6.12,4.02,11.21,8.86,11.27c4.98,0.06,9.06-4.93,9.12-11.16  C43.53,62.31,39.44,57.1,34.53,57.09z M47.83,52.4c2.81,0,5.62-0.03,8.44,0.01c1.44,0.02,2.45-0.65,2.45-2.58  c0-1.84-1.03-2.44-2.36-2.44c-5.62,0-11.25,0.01-16.87,0c-1.35,0-2.33,0.61-2.34,2.46c-0.01,1.96,0.99,2.6,2.44,2.58  C42.33,52.38,45.08,52.41,47.83,52.4z M21.25,84.39c-2.81,0-5.63,0.04-8.44-0.02c-1.39-0.03-2.51,0.37-2.52,2.41  c-0.01,1.95,1,2.58,2.44,2.58c5.56-0.03,11.13-0.03,16.69,0.01c1.47,0.01,2.45-0.69,2.43-2.59c-0.02-1.97-1.12-2.44-2.54-2.4  C26.63,84.44,23.94,84.38,21.25,84.39z M47.81,89.5C47.81,89.49,47.81,89.49,47.81,89.5c2.81-0.01,5.63-0.05,8.44,0.01  c1.46,0.03,2.47-0.65,2.47-2.55c0-1.78-0.98-2.49-2.34-2.49c-5.63,0.01-11.25,0.01-16.88,0c-1.46,0-2.41,0.78-2.37,2.69  c0.04,1.88,1.1,2.35,2.42,2.34C42.31,89.48,45.06,89.5,47.81,89.5z M31.01,81.97c-1.81-1.76-3.22-3.19-4.68-4.52  C25.98,77.13,25.44,77,24.98,77c-4.03-0.04-8.06-0.03-12.1-0.02c-1.33,0-2.56,0.41-2.57,2.43c-0.02,2.1,1.14,2.59,2.62,2.58  c4.28-0.04,8.55-0.01,12.83-0.01C27.39,81.97,29.01,81.97,31.01,81.97z M38.16,81.81c0.5,0.09,0.84,0.2,1.19,0.2  c5.62,0.01,11.25-0.01,16.87,0.02c1.44,0.01,2.5-0.68,2.47-2.57c-0.03-1.91-1.18-2.49-2.56-2.49c-4.03,0.02-8.07,0-12.1,0.05  c-0.5,0.01-1.09,0.19-1.49,0.56C41.11,78.85,39.76,80.25,38.16,81.81z M38.06,54.76c1.81,1.82,3.2,3.27,4.64,4.62  c0.34,0.32,0.9,0.4,1.36,0.4c3.97,0.03,7.95,0.01,11.92,0.03c1.44,0.01,2.68-0.44,2.68-2.55c0-2.12-1.25-2.51-2.69-2.51  c-4.83,0.03-9.66,0.01-14.49,0.01C40.46,54.76,39.45,54.76,38.06,54.76z M44.38,62.18c0.4,1.85,0.73,3.37,1.09,5.03  c3.77,0,7.48,0.04,11.2-0.02c1.28-0.02,2.09-1.04,2.06-2.63c-0.03-1.5-0.84-2.36-2.05-2.37C52.65,62.16,48.63,62.18,44.38,62.18z   M45.44,69.58c-0.37,1.72-0.71,3.26-1.09,5.02c4.2,0,8.27,0.03,12.35-0.02c1.2-0.01,2.16-1.03,1.95-2.42  c-0.15-0.98-1.19-2.42-1.89-2.47C52.99,69.46,49.21,69.58,45.44,69.58z M24.68,74.6c-0.43-1.84-0.8-3.41-1.19-5.02  c-3.79,0-7.45-0.02-11.11,0.01c-1.19,0.01-2,0.8-2.07,2.35c-0.07,1.54,0.64,2.6,1.83,2.62C16.27,74.66,20.4,74.6,24.68,74.6z"/>
<path class="st0" d="M63.53,83.21c-1.32-2.02-1.57-4.19-0.42-6.53c0.17-0.36,0.08-0.95,0.05-1.42c-0.01-0.21-0.15-0.42-0.27-0.6  c-1.49-2.39,0.9-4.74,0.18-6.8c-0.87-2.51-0.85-4.53,0.49-6.66c-1.49-2.44-1.64-4.91-0.01-7.39c-1.49-2.46-1.63-4.94,0.02-7.36  c-1.29-2.26-1.68-4.47-0.34-6.85c0.18-0.32-0.01-1.12-0.2-1.59c-1.59-3.77,0.05-7.57,3.46-7.64c5.76-0.12,11.52-0.11,17.27-0.02  c3.2,0.05,4.86,3.65,3.62,7.34c-0.25,0.75-0.02,1.76-0.01,2.65c0,0.07,0.06,0.13,0.08,0.2c0.87,2.2-0.7,4.28-0.4,6.09  c0.34,2.05,0.98,3.84,0.26,5.95c-0.22,0.64-0.06,1.49-0.06,2.25c0,0.14,0.11,0.27,0.16,0.41c0.86,2.2-0.62,4.3-0.37,6.12  c0.29,2.1,1.05,3.97,0.23,6.15c-0.21,0.56-0.05,1.35-0.05,2.04c0,0.07,0.05,0.14,0.08,0.2c1.28,2.34-0.64,4.61-0.21,6.74  c0.76,3.75,0.95,4.02-0.21,6.49c0.32,1.39,0.78,2.61,0.85,3.86c0.16,2.93-1.27,4.93-3.61,4.96c-6,0.08-12.01,0.11-18.01-0.02  C62.64,91.72,61.42,87.59,63.53,83.21z M75.05,89.49c2.81,0,5.62-0.04,8.43,0.02c1.46,0.03,2.45-0.66,2.44-2.58  c-0.01-1.82-1.03-2.42-2.38-2.42c-5.56,0.01-11.12,0-16.68-0.03c-1.4-0.01-2.52,0.55-2.53,2.49c-0.01,2.09,1.18,2.58,2.65,2.55  C69.67,89.45,72.36,89.49,75.05,89.49z M75.09,59.88c2.87,0,5.75-0.02,8.62,0.01c1.3,0.01,2.16-0.62,2.19-2.36  c0.03-1.83-0.88-2.64-2.23-2.65c-5.69-0.02-11.38,0.01-17.06,0.01c-1.38,0-2.28,0.78-2.28,2.56c-0.01,1.85,0.94,2.46,2.32,2.44  C69.46,59.86,72.27,59.89,75.09,59.88z M75,67.28c2.87,0,5.75-0.01,8.62,0.01c1.36,0.01,2.32-0.61,2.28-2.49  c-0.04-1.81-1-2.52-2.34-2.52c-5.62-0.01-11.25-0.01-16.87-0.02c-1.36,0-2.32,0.74-2.37,2.49c-0.05,1.96,0.98,2.58,2.42,2.55  C69.5,67.24,72.25,67.28,75,67.28z M75.07,82.11c2.87,0,5.74-0.01,8.61,0c1.28,0,2.15-0.62,2.21-2.36c0.07-1.89-0.89-2.64-2.19-2.65  c-5.68-0.04-11.36-0.02-17.04,0c-1.31,0-2.32,0.61-2.3,2.51c0.02,1.81,0.88,2.53,2.28,2.51C69.45,82.09,72.26,82.11,75.07,82.11z   M75.11,74.7c2.82,0,5.64-0.02,8.46,0.01c1.38,0.02,2.3-0.64,2.35-2.46c0.04-1.76-0.96-2.52-2.15-2.54  c-5.76-0.07-11.52-0.05-17.28,0.01c-1.23,0.01-2.19,0.78-2.16,2.5c0.03,1.8,0.94,2.51,2.33,2.49C69.47,74.68,72.29,74.7,75.11,74.7z   M75.17,37.76c0,0.01,0,0.02,0,0.04c2.82,0,5.64,0.01,8.46,0c1.35,0,2.28-0.69,2.27-2.56c-0.01-1.76-0.95-2.46-2.18-2.47  c-5.7-0.03-11.4,0-17.1,0.02c-1.34,0.01-2.31,0.69-2.28,2.56c0.03,1.87,1.03,2.43,2.37,2.42C69.53,37.75,72.35,37.76,75.17,37.76z   M75.13,52.56c2.82,0,5.64-0.01,8.46,0c1.36,0,2.34-0.67,2.32-2.5c-0.02-1.8-0.97-2.48-2.35-2.47c-5.64,0.03-11.28,0.03-16.92,0  c-1.39-0.01-2.31,0.69-2.31,2.5c0,1.82,0.95,2.49,2.33,2.47C69.49,52.52,72.31,52.55,75.13,52.56z M74.94,45.23  c0-0.01,0-0.02,0-0.04c2.87,0,5.74-0.01,8.61,0c1.34,0.01,2.33-0.62,2.36-2.45c0.03-1.84-0.95-2.56-2.28-2.56  c-5.62-0.01-11.24,0.02-16.86,0.03c-1.39,0-2.5,0.55-2.45,2.55c0.05,1.95,1.17,2.48,2.55,2.47C69.57,45.22,72.25,45.23,74.94,45.23z  "/>
<path class="st0" d="M54.41,33.08c7.31-7.08,14.52-14.07,21.86-21.18c-1.04-1.53-2.03-2.88-2.9-4.33c-0.28-0.46-0.44-1.27-0.32-1.8  c0.07-0.31,0.81-0.55,1.24-0.53c2.39,0.14,4.77,0.38,7.15,0.55c0.96,0.07,1.48,0.55,1.4,1.86c-0.18,3.15-0.3,6.3-0.53,9.44  c-0.04,0.5-0.43,1.14-0.79,1.36c-0.23,0.14-0.72-0.36-1.07-0.62c-0.15-0.11-0.25-0.33-0.38-0.5c-2.64-3.48-2.65-3.5-5.64-0.62  c-6.22,5.99-12.45,11.95-18.6,18.04c-1.36,1.35-2.13,1.15-3.15-0.42c-2.71-4.16-5.5-8.23-8.3-12.4C36.56,29.01,28.81,36,21.06,42.99  c-1.24,1.12-2.45,2.31-3.76,3.3c-0.45,0.34-1.15,0.13-1.74,0.18c0.24-0.69,0.32-1.65,0.74-2.04c5.63-5.18,11.3-10.28,16.97-15.39  c3.33-3,6.71-5.93,9.98-9.03c1.11-1.05,1.76-0.89,2.59,0.36c2.34,3.56,4.73,7.07,7.1,10.59C53.4,31.64,53.88,32.31,54.41,33.08z   M75.9,7.66c1.69,2.44,3.01,4.35,4.68,6.76c0.12-2.47,0.2-4.24,0.3-6.23C79.28,8.01,77.86,7.86,75.9,7.66z"/>
</svg>