<?xml version="1.0" encoding="UTF-8"?>
<!-- Generator: Adobe Illustrator 23.1.0, SVG Export Plug-In . SVG Version: 6.00 Build 0)  -->
<svg version="1.1" id="Layer_1" xmlns="http://www.w3.org/2000/svg" xmlns:xlink="http://www.w3.org/1999/xlink" x="0px" y="0px" viewBox="0 0 96 96" style="enable-background:new 0 0 96 96;" xml:space="preserve">
<style type="text/css">
	.st0{fill:#223268;}
	.st1{fill:#FFFFFF;}
</style>
<path class="st0" d="M4.6,38.33c0.94-1.7,1.64-3.59,2.86-5.05c2.71-3.23,7.23-4.18,11.12-2.67c4.11,1.6,6.61,5.18,6.65,9.55  c0.01,0.63,0,1.26,0,2.07c2.61,0.84,5.25,1.72,7.92,2.49c0.34,0.1,1.05-0.3,1.24-0.66c2.3-4.22,5.69-6.9,10.49-7.77  c0.5-0.09,1.22-0.9,1.24-1.41c0.13-2.53,0.06-5.07,0.06-7.76c-3.55-0.76-6.68-2.34-8.03-5.76c-0.82-2.08-1.19-4.61-0.88-6.82  c0.68-4.79,5.17-8.16,10.09-8.13c4.97,0.02,9.07,3.57,10.08,8.72c1,5.09-1.96,9.27-8.52,12c0,2.96,0,5.93,0,9.03  c4.29,0.58,7.67,2.6,10.17,6.09c1.95,2.73,1.98,2.7,5.28,1.61c1.8-0.59,3.61-1.14,5.46-1.72c-0.16-3.16,0.24-6.06,2.33-8.5  c5.21-6.07,14.66-4.47,17.56,2.99c0.22,0.58,0.48,1.14,0.72,1.7c0,1.27,0,2.54,0,3.82c-0.49,1.08-0.89,2.21-1.49,3.22  c-3.79,6.45-12.55,6.95-17.12,0.9c-1-1.32-1.84-1.56-3.28-1.04c-1.78,0.65-3.61,1.22-5.45,1.68c-1.25,0.32-1.78,0.84-1.63,2.23  c0.45,4.36-0.89,8.16-3.97,11.29c-0.71,0.73-0.81,1.28-0.16,2.1c1.61,2.04,3.15,4.14,4.7,6.2c6.8-2.21,11.66-0.72,14.36,4.35  c2.34,4.38,1.09,9.93-2.93,13c-4.01,3.06-9.5,2.76-13.27-0.73c-4.18-3.87-4.29-8.91-0.25-15.04c-1.79-2.38-3.61-4.8-5.4-7.17  c-1.89,0.53-3.64,1.39-5.4,1.42c-2.42,0.04-4.9-0.38-7.26-0.97c-1.24-0.31-1.83-0.12-2.49,0.83c-1.06,1.51-2.13,3.02-3.35,4.39  c-0.98,1.1-0.96,1.85-0.06,3.06c2.72,3.68,2.68,8.17,0.12,11.91c-2.38,3.47-6.65,5.08-10.91,4.11c-3.84-0.87-7.09-4.34-7.65-8.34  c-0.56-4.03,0.66-7.43,3.97-9.91c3.16-2.36,6.62-2.69,10.26-1.21c0.29,0.12,0.58,0.24,1.01,0.42c0.92-1.22,1.84-2.42,2.75-3.62  c0.88-1.16,1.75-2.32,2.42-3.19c-1.43-2.32-3.1-4.32-3.96-6.62c-0.77-2.05-0.61-4.45-0.95-6.67c-0.09-0.55-0.43-1.37-0.85-1.52  c-2.56-0.91-5.18-1.67-7.19-2.29c-2.24,1.77-3.95,3.68-6.09,4.69c-5.17,2.45-11.22-0.16-13.46-5.43c-0.29-0.68-0.58-1.36-0.87-2.05  C4.6,40.87,4.6,39.6,4.6,38.33z M47.35,62.09c6.51-0.02,11.78-5.29,11.73-11.73c-0.05-6.52-5.44-11.77-12.01-11.7  c-6.3,0.07-11.55,5.43-11.53,11.8C35.56,56.95,40.81,62.11,47.35,62.09z M39.56,16.59c-0.09,4.25,3.43,7.86,7.66,7.88  c4.14,0.01,7.69-3.48,7.75-7.61c0.06-4.15-3.34-7.71-7.49-7.86C43.26,8.85,39.65,12.31,39.56,16.59z M14.87,47.91  c4.29,0.03,7.78-3.41,7.8-7.7c0.02-4.18-3.41-7.63-7.62-7.67c-4.25-0.04-7.72,3.3-7.78,7.5C7.21,44.4,10.57,47.87,14.87,47.91z   M75.06,77.93c0.01-4.13-3.62-7.8-7.74-7.83c-4.15-0.03-7.74,3.59-7.74,7.79c-0.01,4.09,3.56,7.71,7.61,7.73  C71.3,85.65,75.04,81.99,75.06,77.93z M35.46,77.83c-0.02-4.04-3.59-7.65-7.65-7.73c-4.09-0.08-7.84,3.59-7.86,7.7  c-0.02,4.22,3.71,7.9,7.93,7.82C31.91,85.55,35.47,81.89,35.46,77.83z M80.15,47.91c4.28-0.03,7.72-3.55,7.65-7.85  c-0.07-4.2-3.55-7.58-7.76-7.53c-4.28,0.05-7.75,3.59-7.67,7.83C72.45,44.53,75.97,47.94,80.15,47.91z"/>
<path class="st1" d="M47.35,62.09c-6.55,0.02-11.8-5.14-11.82-11.63c-0.02-6.37,5.23-11.73,11.53-11.8  c6.58-0.07,11.96,5.18,12.01,11.7C59.13,56.8,53.87,62.07,47.35,62.09z M54.22,55.18c-2.97-4.36-9.19-5.03-12.67-1.52  c-0.86,0.87-0.87,1.48-0.01,2.37C44.97,59.57,50.91,59.24,54.22,55.18z M50.77,46.07c0.01-1.84-1.53-3.44-3.35-3.47  c-1.96-0.04-3.54,1.5-3.53,3.45c0,1.95,1.41,3.41,3.32,3.45C49.2,49.54,50.76,48.04,50.77,46.07z"/>
<path class="st1" d="M39.56,16.59c0.09-4.27,3.7-7.74,7.91-7.59c4.15,0.15,7.55,3.71,7.49,7.86c-0.06,4.13-3.61,7.63-7.75,7.61  C42.99,24.45,39.48,20.83,39.56,16.59z M49.1,11.43c-1.53,0-2.97,0.03-4.42-0.01c-1.17-0.04-1.54,0.53-1.52,1.62  c0.04,2.53,0.05,5.06,0,7.59c-0.02,1.12,0.49,1.42,1.5,1.39c1.71-0.04,3.42-0.06,5.12,0c1.08,0.04,1.46-0.4,1.43-1.45  c-0.05-2.15-0.02-4.3-0.03-6.45c0-0.18-0.1-0.36-0.16-0.55c-0.56-0.09-1.1-0.17-1.68-0.26C49.27,12.69,49.2,12.15,49.1,11.43z"/>
<path class="st1" d="M14.87,47.91c-4.3-0.03-7.66-3.51-7.6-7.87c0.06-4.19,3.52-7.54,7.78-7.5c4.21,0.04,7.64,3.49,7.62,7.67  C22.65,44.49,19.16,47.94,14.87,47.91z M18.8,36.84c-0.68-0.12-1.23-0.22-1.81-0.33c-0.1-0.67-0.19-1.27-0.3-1.94  c-1.59,0-3.05-0.07-4.5,0.04c-0.43,0.03-1.16,0.56-1.17,0.87c-0.09,3.21-0.05,6.43-0.05,9.7c2.76,0,5.21,0,7.82,0  C18.8,42.37,18.8,39.66,18.8,36.84z"/>
<path class="st1" d="M75.06,77.93c-0.01,4.06-3.76,7.72-7.88,7.7c-4.05-0.02-7.61-3.65-7.61-7.73c0.01-4.21,3.6-7.82,7.74-7.79  C71.44,70.13,75.07,73.8,75.06,77.93z M71.01,83.04c0-3,0-5.7,0-8.4c-0.15,0.09-0.29,0.18-0.44,0.28c-0.66-0.72-1.33-1.45-2.33-2.54  c-0.88,0-2.34-0.11-3.78,0.06c-0.5,0.06-1.28,0.82-1.31,1.3c-0.13,2.66-0.12,5.34-0.01,8c0.02,0.45,0.74,1.22,1.18,1.24  C66.46,83.11,68.62,83.04,71.01,83.04z"/>
<path class="st1" d="M35.46,77.83c0.02,4.06-3.55,7.72-7.59,7.79c-4.22,0.08-7.95-3.6-7.93-7.82c0.02-4.11,3.77-7.78,7.86-7.7  C31.87,70.18,35.44,73.79,35.46,77.83z M29.92,74.34c-0.15-0.74-0.27-1.32-0.39-1.93c-1.59,0-3.04,0.03-4.49-0.01  c-0.95-0.03-1.37,0.3-1.35,1.32c0.04,2.66-0.05,5.32,0.07,7.97c0.02,0.47,0.79,1.25,1.27,1.29c1.76,0.16,3.54,0.03,5.31,0.08  c1.13,0.03,1.39-0.53,1.36-1.52c-0.05-2.15-0.01-4.3-0.03-6.46c0-0.18-0.09-0.36-0.14-0.55C31.02,74.47,30.52,74.41,29.92,74.34z"/>
<path class="st1" d="M80.15,47.91c-4.18,0.03-7.7-3.38-7.78-7.54c-0.08-4.24,3.39-7.78,7.67-7.83c4.21-0.05,7.69,3.33,7.76,7.53  C87.86,44.36,84.43,47.89,80.15,47.91z M81.89,34.58c-1.68,0-3.2-0.1-4.7,0.06c-0.44,0.05-1.14,0.79-1.16,1.24  c-0.11,2.73-0.1,5.47,0,8.2c0.01,0.41,0.63,1.13,1.01,1.16c1.9,0.12,3.82,0.13,5.71-0.01c0.43-0.03,1.12-0.8,1.14-1.25  c0.12-2.34,0.05-4.69,0.05-7.06c-0.7-0.17-1.28-0.31-1.87-0.45C82.01,35.84,81.96,35.34,81.89,34.58z"/>
<path class="st0" d="M54.22,55.18c-3.31,4.06-9.24,4.39-12.69,0.84c-0.86-0.88-0.85-1.5,0.01-2.37  C45.03,50.15,51.25,50.82,54.22,55.18z"/>
<path class="st0" d="M50.77,46.07c-0.01,1.97-1.57,3.47-3.56,3.43c-1.91-0.04-3.31-1.5-3.32-3.45c0-1.95,1.57-3.49,3.53-3.45  C49.24,42.63,50.78,44.23,50.77,46.07z"/>
<path class="st0" d="M49.1,11.43c0.09,0.72,0.17,1.26,0.25,1.88c0.58,0.09,1.12,0.18,1.68,0.26c0.06,0.2,0.15,0.37,0.16,0.55  c0.02,2.15-0.01,4.3,0.03,6.45c0.02,1.05-0.35,1.48-1.43,1.45c-1.71-0.06-3.42-0.04-5.12,0c-1.01,0.03-1.52-0.27-1.5-1.39  c0.05-2.53,0.04-5.06,0-7.59c-0.02-1.09,0.34-1.66,1.52-1.62C46.13,11.47,47.57,11.43,49.1,11.43z"/>
<path class="st0" d="M18.8,36.84c0,2.82,0,5.53,0,8.34c-2.61,0-5.06,0-7.82,0c0-3.27-0.03-6.49,0.05-9.7  c0.01-0.31,0.74-0.84,1.17-0.87c1.45-0.11,2.91-0.04,4.5-0.04c0.1,0.67,0.19,1.27,0.3,1.94C17.57,36.62,18.11,36.72,18.8,36.84z"/>
<path class="st0" d="M71.01,83.04c-2.39,0-4.54,0.07-6.68-0.06c-0.44-0.03-1.16-0.79-1.18-1.24c-0.11-2.66-0.12-5.34,0.01-8  c0.02-0.47,0.8-1.24,1.31-1.3c1.43-0.18,2.9-0.06,3.78-0.06c1,1.09,1.67,1.82,2.33,2.54c0.15-0.09,0.29-0.18,0.44-0.28  C71.01,77.34,71.01,80.04,71.01,83.04z"/>
<path class="st0" d="M29.92,74.34c0.6,0.07,1.1,0.13,1.62,0.19c0.05,0.19,0.14,0.37,0.14,0.55c0.01,2.15-0.02,4.31,0.03,6.46  c0.02,1-0.24,1.56-1.36,1.52c-1.77-0.05-3.55,0.08-5.31-0.08c-0.48-0.04-1.25-0.82-1.27-1.29c-0.12-2.65-0.02-5.32-0.07-7.97  c-0.02-1.01,0.4-1.34,1.35-1.32c1.45,0.04,2.9,0.01,4.49,0.01C29.66,73.02,29.78,73.61,29.92,74.34z"/>
<path class="st0" d="M81.89,34.58c0.07,0.76,0.12,1.26,0.18,1.88c0.58,0.14,1.17,0.28,1.87,0.45c0,2.37,0.06,4.72-0.05,7.06  c-0.02,0.46-0.72,1.22-1.14,1.25c-1.9,0.14-3.81,0.13-5.71,0.01c-0.37-0.02-0.99-0.74-1.01-1.16c-0.09-2.73-0.1-5.47,0-8.2  c0.02-0.45,0.72-1.19,1.16-1.24C78.68,34.48,80.21,34.58,81.89,34.58z"/>
</svg>