<?xml version="1.0" encoding="UTF-8"?>
<!-- Generator: Adobe Illustrator 23.1.0, SVG Export Plug-In . SVG Version: 6.00 Build 0)  -->
<svg version="1.1" id="Layer_1" xmlns="http://www.w3.org/2000/svg" xmlns:xlink="http://www.w3.org/1999/xlink" x="0px" y="0px" viewBox="0 0 96 96" style="enable-background:new 0 0 96 96;" xml:space="preserve">
<style type="text/css">
	.st0{fill:#223268;}
	.st1{fill:#FFFFFF;}
</style>
<path class="st0" d="M47.63,88.78c-12.22,0-24.44-0.09-36.65,0.06c-3.46,0.04-4.3-1.1-3.57-4.39c1.32-5.97,4.58-10.77,9.79-13.42  c5.92-3.01,12.45-4.79,18.66-7.23c1.25-0.49,2.9-1.29,3.28-2.34c0.67-1.86-0.09-3.31-2.18-4.63c-3.66-2.31-7.17-5.1-10.08-8.29  c-2.57-2.83-3.73-6.58-7.96-8.29c-3.52-1.42-3.26-5.58-2.9-9c0.32-3.09,2.05-5.14,5.01-6.35c1.25-0.51,2.57-1.59,3.18-2.77  c5-9.65,12.95-14.94,23.7-14.96c10.75-0.02,18.7,5.25,23.77,14.86c0.67,1.26,2.13,2.34,3.48,2.95c3.43,1.54,4.77,4.18,4.86,7.71  c0.1,3.72-0.71,6.84-4.49,8.72c-1.66,0.82-3.33,2.26-4.22,3.85c-2.9,5.16-6.75,9.26-12.18,11.58c-2.3,0.99-3.11,2.6-2.35,4.48  c0.46,1.14,2.22,2.2,3.56,2.46c7.49,1.43,14.53,3.82,20.54,8.67c3.73,3,6.47,6.67,7.45,11.52c0.89,4.41,0.69,4.8-3.66,4.81  C72.32,88.79,59.98,88.78,47.63,88.78z M9.98,85.77c25.41,0,50.52,0,75.94,0c-0.52-4.98-3.12-8.41-6.63-11.22  C73.05,69.54,65.7,67.27,57.91,66c-1.43-0.23-3.87-1.83-3.78-2.52c0.37-2.81-2.35-6.55,2.41-8.32c6.11-2.27,10.26-6.75,13.1-12.64  c0.69-1.44,2.45-2.79,4-3.3c3.15-1.05,3.63-3.17,3.7-6.01c0.07-2.97-0.78-5.52-3.84-5.78c-2.56-0.22-3.11-1.61-3.95-3.42  C65.23,14.81,58.01,9.8,47.76,9.88C37.69,9.96,30.6,14.95,26.39,24.02c-0.84,1.81-1.4,3.19-3.96,3.41  c-3.07,0.26-3.89,2.84-3.85,5.79c0.04,2.85,0.59,4.94,3.71,6c1.55,0.52,3.34,1.85,4,3.29c2.69,5.84,6.79,10.3,12.74,12.42  c5.06,1.81,2.52,5.57,2.87,8.48c0.36,2.97-2.52,2.41-4.22,2.68c-7.66,1.22-14.88,3.51-21.02,8.42  C13.15,77.33,10.58,80.78,9.98,85.77z"/>
<path class="st1" d="M9.98,85.77c0.6-4.99,3.17-8.45,6.69-11.26c6.14-4.92,13.36-7.2,21.02-8.42c1.7-0.27,4.58,0.3,4.22-2.68  c-0.35-2.91,2.19-6.67-2.87-8.48c-5.95-2.12-10.05-6.59-12.74-12.42c-0.66-1.43-2.44-2.76-4-3.29c-3.12-1.05-3.67-3.14-3.71-6  c-0.04-2.96,0.78-5.53,3.85-5.79c2.56-0.22,3.12-1.6,3.96-3.41c4.21-9.08,11.3-14.07,21.37-14.15c10.25-0.08,17.47,4.93,21.78,14.13  c0.85,1.81,1.39,3.2,3.95,3.42c3.06,0.26,3.91,2.81,3.84,5.78c-0.07,2.83-0.55,4.96-3.7,6.01c-1.55,0.52-3.31,1.86-4,3.3  c-2.84,5.89-6.99,10.37-13.1,12.64c-4.77,1.77-2.05,5.51-2.41,8.32c-0.09,0.69,2.35,2.29,3.78,2.52c7.79,1.27,15.14,3.53,21.38,8.55  c3.51,2.81,6.1,6.25,6.63,11.22C60.5,85.77,35.39,85.77,9.98,85.77z M59.38,47.45c0-5.7-0.18-10.9,0.07-16.07  c0.16-3.24-1.15-4.02-4.09-3.9c-4.36,0.19-8.74,0.05-13.04,0.05c-0.45-4.78,0.12-6.64,2.54-8.07c2.87-1.7,5.4-1.03,7.76,1.22  c0.45,0.43,1.58,0.14,2.87,0.2c-4.08-6.25-11.47-6.41-14.79-0.96c-1.77,2.91-2.84,6.49-3.65,9.42c-1.56,5.62-0.45,11.97-0.45,18.11  C44.38,47.45,51.6,47.45,59.38,47.45z"/>
<path class="st0" d="M59.38,47.45c-7.78,0-15.01,0-22.78,0c0-6.14-1.11-12.5,0.45-18.11c0.81-2.92,1.88-6.51,3.65-9.42  c3.31-5.45,10.71-5.28,14.79,0.96c-1.29-0.06-2.42,0.23-2.87-0.2c-2.36-2.25-4.89-2.92-7.76-1.22c-2.42,1.43-2.99,3.29-2.54,8.07  c4.3,0,8.68,0.14,13.04-0.05c2.94-0.13,4.24,0.66,4.09,3.9C59.2,36.56,59.38,41.75,59.38,47.45z M39.19,44.92  c6.13,0,11.77,0,17.47,0c0-4.97,0-9.67,0-14.32c-6.02,0-11.75,0-17.47,0C39.19,35.52,39.19,40.12,39.19,44.92z"/>
<path class="st1" d="M39.19,44.92c0-4.8,0-9.41,0-14.32c5.72,0,11.45,0,17.47,0c0,4.65,0,9.35,0,14.32  C50.96,44.92,45.33,44.92,39.19,44.92z"/>
</svg>