<?xml version="1.0" encoding="UTF-8"?>
<!-- Generator: Adobe Illustrator 23.1.0, SVG Export Plug-In . SVG Version: 6.00 Build 0)  -->
<svg version="1.1" id="Layer_1" xmlns="http://www.w3.org/2000/svg" xmlns:xlink="http://www.w3.org/1999/xlink" x="0px" y="0px" viewBox="0 0 96 96" style="enable-background:new 0 0 96 96;" xml:space="preserve">
<style type="text/css">
	.st0{fill:#223268;}
	.st1{fill:#FFFFFF;}
</style>
<path class="st0" d="M88.52,46.56c-2.65,1.8-5.35,3.5-7.94,5.45c-1.73,1.3-3.51,2.68-4.91,4.51c-5.84,7.63-12.86,12.74-20.21,17.26  c-3.87,2.38-7.68,4.96-11.53,7.41c-4.56,2.91-6.43,1.91-8-4.23c-5.22,2.33-7.15,1.15-7.8-4.8c-4.61-1.15-5.71-5.2-3.7-9.91  c-0.24-0.37-0.49-0.79-0.76-1.2c-1.97-2.94-1.57-6.96,1.02-8.84c2.24-1.63,4.57-3.07,6.92-4.44c0.49-0.28,1.2,0.1,1.8,0.18  c-0.35,0.72-0.57,1.73-1.06,2.09c-1.98,1.44-4.04,2.66-6.07,3.99c-1.72,1.14-2.27,2.67-1.61,4.4c0.68,1.78,1.83,2.17,3.6,1.05  c4.02-2.55,8.01-5.17,12.01-7.76c0.33-0.21,0.66-0.59,0.99-0.59c0.54,0,1.08,0.25,1.63,0.4c-0.26,0.62-0.39,1.53-0.79,1.82  c-1.7,1.26-3.48,2.33-5.24,3.47c-3.17,2.07-6.35,4.13-9.52,6.23c-1.87,1.24-2.43,2.75-1.74,4.51c0.66,1.7,1.97,2.02,3.83,0.82  c5.11-3.27,10.2-6.59,15.3-9.88c0.38-0.25,0.77-0.65,1.16-0.67c0.48-0.02,0.96,0.3,1.45,0.47c-0.21,0.6-0.29,1.47-0.64,1.74  c-1.48,1.11-3.05,2.05-4.58,3.04c-3.24,2.09-6.48,4.16-9.71,6.28c-2.17,1.43-2.76,2.92-2,4.79c0.73,1.8,2.03,1.95,4.17,0.55  c4.43-2.9,8.87-5.76,13.31-8.64c0.27-0.18,0.55-0.5,0.83-0.49c0.64,0.02,1.29,0.21,1.93,0.32c-0.35,0.66-0.58,1.59-1.06,1.92  c-2.98,2.05-6.01,3.97-9.02,5.93c-0.22,0.14-0.44,0.29-0.65,0.44c-1.62,1.12-2.24,2.82-1.5,4.47c0.88,1.96,2.2,1.77,3.53,0.92  c4.4-2.81,8.77-5.69,13.17-8.49c5.73-3.65,11.45-7.28,16.23-13c1.54-1.84,3.08-3.68,4.73-5.66c-1.7-4.65-3.39-9.27-5.1-13.89  c-2.07-5.58-4.12-11.16-6.25-16.7c-0.7-1.82-0.55-2.93,0.92-3.83c2.77-1.68,5.53-3.43,8.23-5.31c1.47-1.02,2.18-0.43,2.84,1.37  c3.54,9.65,7.14,19.27,10.74,28.88c0.28,0.76,0.7,1.43,1.06,2.14C88.52,45.59,88.52,46.08,88.52,46.56z M66.46,20.44  C70.28,30.76,74,40.79,77.76,50.96c2.88-1.88,5.58-3.64,8.36-5.45c-3.83-10.34-7.54-20.37-11.28-30.48  C71.97,16.89,69.29,18.62,66.46,20.44z"/>
<path class="st0" d="M5.96,47.05c2.45-9.28,4.9-18.56,7.34-27.83c0.48-1.82,1.02-3.63,1.43-5.48c0.38-1.75,1.16-2.09,2.36-1.54  c3.57,1.63,7.18,3.14,10.73,4.89c2.25,1.11,4.35,1.24,6.52-0.22c2.24-1.51,4.58-1.53,6.94-0.45c6.45,2.95,12.9,5.92,19.37,8.79  c1.44,0.64,1.71,1.73,1.44,3.49c-0.74,4.82-3.49,7.41-7.12,6.21c-3.06-1.02-6.03-2.5-9.07-3.79c-0.6,1.37-1.11,2.74-1.75,4  c-3.8,7.48-9.39,8.45-15,5.97c-0.4-0.18-0.61-1.15-0.9-1.75c0.5-0.22,1.07-0.75,1.5-0.6c2.51,0.87,4.99,1.48,7.56,0.38  c3.44-1.48,5.41-4.87,6.64-9.07c0.57-1.95,1.25-2.17,2.62-1.5c2.63,1.3,5.3,2.42,7.97,3.54c3.15,1.33,4.65,0.21,5.62-4.28  c-3.94-1.81-7.89-3.64-11.84-5.45c-2.59-1.19-5.15-2.6-7.8-3.44c-1.52-0.48-3.37-0.59-4.79,0.12c-2.77,1.39-5.39,2.62-8.42,0.48  c-0.56,2.09-1.07,3.88-1.53,5.68c-2.22,8.62-4.43,17.25-6.66,25.87c-0.75,2.91-0.97,3.05-3.16,2.07c-2.72-1.21-5.43-2.42-8.13-3.71  c-0.67-0.32-1.25-0.93-1.88-1.41C5.96,47.7,5.96,47.37,5.96,47.05z M16.56,14.72c-2.8,10.83-5.54,21.41-8.31,32.14  c3.1,1.39,5.89,2.65,8.83,3.97c2.79-10.78,5.54-21.37,8.31-32.09C22.39,17.36,19.59,16.09,16.56,14.72z"/>
<path class="st1" d="M66.46,20.44c2.83-1.83,5.51-3.55,8.39-5.41c3.74,10.11,7.45,20.14,11.28,30.48c-2.78,1.82-5.48,3.58-8.36,5.45  C74,40.79,70.28,30.76,66.46,20.44z"/>
<path class="st1" d="M16.56,14.72c3.02,1.38,5.82,2.65,8.83,4.02c-2.78,10.72-5.52,21.31-8.31,32.09c-2.94-1.32-5.73-2.58-8.83-3.97  C11.03,36.13,13.76,25.54,16.56,14.72z"/>
</svg>