<?xml version="1.0" encoding="UTF-8"?>
<!-- Generator: Adobe Illustrator 23.1.0, SVG Export Plug-In . SVG Version: 6.00 Build 0)  -->
<svg version="1.1" id="Layer_1" xmlns="http://www.w3.org/2000/svg" xmlns:xlink="http://www.w3.org/1999/xlink" x="0px" y="0px" viewBox="0 0 96 96" style="enable-background:new 0 0 96 96;" xml:space="preserve">
<style type="text/css">
	.st0{fill:#223268;}
	.st1{fill:#FFFFFF;}
</style>
<path class="st0" d="M1.64,74.32c0.31-1.75,0.58-3.51,0.95-5.24c2.2-10.25,6.98-17.53,14.52-21.6c0.37-0.2,0.73-0.43,1.32-0.78  C14.21,42.09,12,36.46,12.35,29.3c0.23-4.75,1.63-8.79,4.1-12.17c4.71-6.46,13.3-8.76,20.68-1.08C40.54,9.66,45.2,5.7,51.19,5.28  c6.06-0.43,10.96,2.93,14.84,8.96c2.13-2.69,5.32-2.81,9.05-0.41c10.6,6.83,12.19,23.76,4.09,32.89c-0.09,0.1-0.12,0.32-0.09,0.23  c2.7,2.52,5.54,4.74,7.99,7.55c4.37,5.02,6.75,11.58,7.59,19.12c0.05,0.42,0.23,0.82,0.34,1.23c0,1.45,0,2.9,0,4.36  c-1.15,0.6-2.29,1.61-3.46,1.71c-3.02,0.25-6.05,0.08-9.35,0.08c0.08,1.46,0.14,2.68,0.22,3.89c0.18,2.75-0.56,4.42-2.02,4.57  c-1.45,0.15-2.28-1.35-2.41-4.21c-0.65-13.43-5.55-23.36-14.69-29.33C46.84,45.2,27.49,60.32,26.22,84.72  c-0.12,2.24-0.05,4.61-2.4,4.73c-1.54,0.08-2.12-1.54-2-5.04c0.04-1.06,0.07-2.13,0.12-3.39c-5.69,0-11.27,0.1-16.84-0.08  c-1.16-0.04-2.31-1.11-3.46-1.71C1.64,77.59,1.64,75.95,1.64,74.32z M52.05,45.48c7.41,0,13.13-7.48,13.12-17.18  c-0.01-9.57-5.92-17.31-13.16-17.23c-7.24,0.08-13.13,7.92-13.07,17.41C39,37.94,44.81,45.47,52.05,45.48z M90.85,75.27  c-1.08-3.76-1.72-7.11-2.95-10.04c-3.26-7.77-8.39-12.29-15.04-13.89c-1.41-0.34-3.07-0.52-3.12-3.12c-0.04-2.36,1.4-2.85,2.78-3.32  c0.13-0.05,0.27-0.08,0.4-0.14c5.09-2.27,7.96-9.25,6.6-16.1c-1.3-6.58-6.9-11.72-11.61-10.67c3.78,12.38,1.34,22.44-6.85,30.42  c9.75,4.61,16.4,12.95,19.85,25.55c0.15,0.54,0.71,1.24,1.1,1.25C84.74,75.32,87.48,75.27,90.85,75.27z M35.43,53.26  c-7.23-4.02-13.91-3.13-20.16,2.1c-5.4,4.52-8.21,11.29-9.11,20.06c5.8,0,11.21,0,16.77,0C25.04,66.42,29.11,58.97,35.43,53.26z   M27.18,16.55c-4.8,0.5-8.97,4.64-10.1,10.39c-1.29,6.54,0.73,12.7,5.22,15.92c4.04,2.91,9.26,1.63,12.54-2.83  c1.08-1.47,0.98-2.71,0.7-4.54c-0.51-3.4-0.92-6.94-0.77-10.38c0.17-3.82,0.29-4.54-2.39-6.24C30.74,17.84,28.92,17.31,27.18,16.55z   M38.59,43.43c-0.94,1.14-1.86,2.28-2.97,3.62c2.53,1.06,4.57,4.35,7.27,1.13C41.48,46.62,40.12,45.12,38.59,43.43z"/>
<path class="st1" d="M38.59,43.43c1.53,1.69,2.89,3.19,4.3,4.75c-2.7,3.22-4.74-0.07-7.27-1.13C36.73,45.71,37.66,44.58,38.59,43.43  z"/>
</svg>