<?xml version="1.0" encoding="UTF-8"?>
<!-- Generator: Adobe Illustrator 23.1.0, SVG Export Plug-In . SVG Version: 6.00 Build 0)  -->
<svg version="1.1" id="Layer_1" xmlns="http://www.w3.org/2000/svg" xmlns:xlink="http://www.w3.org/1999/xlink" x="0px" y="0px" viewBox="0 0 96 96" style="enable-background:new 0 0 96 96;" xml:space="preserve">
<style type="text/css">
	.st0{fill:#FFFFFF;}
	.st1{fill:#223268;}
</style>
<path class="st0" d="M17.37,34.53c0.28,0.58,0.57,0.98,0.67,1.43c0.79,3.45,2.61,6.27,5.12,8.71c2.24,2.17,4.27,4.57,6.66,6.55  c2.62,2.18,3.71,4.65,3.34,8.07c-0.65,6.08,1.51,11.15,6.18,15.11c1.14,0.96,1.36,2.05,0.94,3.37c-2.71,0.25-2.76,0.29-2.76,2.98  c-0.01,3.18,0.04,6.35-0.02,9.53c-0.03,1.65,0.64,2.28,2.29,2.28c7.76-0.05,15.52-0.05,23.27,0c1.78,0.01,2.38-0.71,2.34-2.41  c-0.08-2.99-0.02-5.99-0.02-8.98c0-3.03,0-3.03-3.45-3.54c4.62-5.82,3.21-12.59,3.46-18.65c1.26-0.94,2.3-1.58,3.17-2.4  c1.78-1.67,3.4-3.52,5.21-5.15c4.34-3.9,6.4-8.69,5.94-14.51c-0.12-1.52,0.36-2.58,1.67-3.31c2.26,1.71,2.27,1.71,4.31-0.33  c2.25-2.25,4.47-4.51,6.74-6.74c0.98-0.96,1.03-1.81,0.03-2.81c-5.63-5.6-11.25-11.21-16.84-16.85c-1.04-1.05-1.93-1.04-2.95,0.01  c-2.13,2.19-4.31,4.33-6.47,6.49c-2.14,2.15-2.14,2.15-0.59,4.52c-2.52,1.28-5.23,2.3-7.51,3.91c-2.3,1.62-4.18,3.84-6.22,5.78  c-0.22-0.14-0.34-0.19-0.42-0.27c-0.22-0.21-0.45-0.41-0.65-0.64c-3.88-4.45-8.76-6.51-14.65-6.01c-1.53,0.13-2.53-0.43-3.24-1.7  c1.77-2.17,1.77-2.17-0.24-4.19c-2.2-2.21-4.44-4.37-6.59-6.62c-1.12-1.17-2.03-1.28-3.22-0.07c-5.5,5.56-11.02,11.09-16.58,16.59  c-1.21,1.2-1.06,2.11,0.1,3.22c2.25,2.15,4.42,4.39,6.62,6.59C14.96,36.44,15.01,36.44,17.37,34.53z"/>
<path class="st1" d="M17.37,34.53c-2.36,1.92-2.4,1.92-4.39-0.06c-2.21-2.2-4.37-4.44-6.62-6.59c-1.16-1.11-1.31-2.02-0.1-3.22  c5.56-5.5,11.09-11.03,16.58-16.59c1.19-1.21,2.1-1.09,3.22,0.07c2.15,2.25,4.39,4.42,6.59,6.62c2.01,2.02,2.01,2.02,0.24,4.19  c0.71,1.27,1.71,1.83,3.24,1.7c5.89-0.5,10.77,1.56,14.65,6.01c0.2,0.23,0.43,0.44,0.65,0.64c0.09,0.08,0.2,0.13,0.42,0.27  c2.04-1.93,3.92-4.15,6.22-5.78c2.29-1.62,5-2.64,7.51-3.91c-1.55-2.37-1.55-2.37,0.59-4.52c2.16-2.16,4.34-4.3,6.47-6.49  c1.03-1.05,1.91-1.06,2.95-0.01c5.6,5.63,11.21,11.25,16.84,16.85c1,1,0.95,1.84-0.03,2.81c-2.27,2.23-4.49,4.49-6.74,6.74  c-2.04,2.04-2.05,2.04-4.31,0.33c-1.3,0.73-1.79,1.8-1.67,3.31c0.47,5.82-1.6,10.61-5.94,14.51c-1.81,1.63-3.43,3.48-5.21,5.15  c-0.87,0.82-1.91,1.45-3.17,2.4c-0.25,6.06,1.15,12.82-3.46,18.65c3.44,0.51,3.45,0.51,3.45,3.54c0,2.99-0.06,5.99,0.02,8.98  c0.04,1.7-0.56,2.43-2.34,2.41c-7.76-0.06-15.52-0.05-23.27,0c-1.65,0.01-2.32-0.62-2.29-2.28c0.06-3.18,0.01-6.35,0.02-9.53  c0.01-2.69,0.06-2.73,2.76-2.98c0.41-1.32,0.19-2.4-0.94-3.37c-4.67-3.95-6.83-9.03-6.18-15.11c0.37-3.42-0.72-5.89-3.34-8.07  c-2.39-1.98-4.42-4.38-6.66-6.55c-2.51-2.44-4.33-5.26-5.12-8.71C17.93,35.51,17.65,35.11,17.37,34.53z M68.01,20.36  c-1.11,0.45-2.19,0.79-3.18,1.31c-2.09,1.08-4.46,1.9-6.12,3.46c-5.56,5.22-10.85,10.73-16.25,16.12c-0.76,0.76-1.35,1.56-0.38,2.49  c0.98,0.93,1.77,0.25,2.5-0.49c2.07-2.08,4.14-4.15,6.21-6.22c0.72-0.72,1.51-1.48,2.49-0.55c1.02,0.98,0.39,1.85-0.41,2.65  c-2.73,2.71-5.44,5.44-8.16,8.15c-0.77,0.76-1.59,1.58-0.58,2.63c1.02,1.05,1.85,0.24,2.62-0.53c2.72-2.72,5.45-5.43,8.17-8.15  c0.78-0.78,1.62-1.55,2.64-0.54c1.05,1.04,0.19,1.87-0.57,2.62c-2.64,2.63-5.28,5.26-7.9,7.9c-0.79,0.8-2.03,1.67-0.74,2.86  c1.23,1.14,2.08-0.06,2.89-0.86c1.78-1.76,3.54-3.54,5.31-5.31c0.99-0.99,1.9-2.1,3.02-2.92c0.48-0.35,1.38-0.13,2.09-0.16  c-0.01,0.71,0.1,1.45-0.07,2.11c-0.1,0.41-0.64,0.71-0.99,1.05c-2.63,2.63-5.26,5.27-7.9,7.9c-0.74,0.74-1.15,1.67-0.2,2.32  c0.47,0.32,1.48-0.01,2.18-0.23c0.41-0.13,0.7-0.65,1.05-1c4.19-4.19,8.38-8.37,12.56-12.56c0.76-0.76,1.6-1.64,2.63-0.63  c1.12,1.08,0.2,1.96-0.6,2.77c-1.99,1.98-3.96,3.98-5.96,5.96c-0.8,0.79-1.53,1.64-0.5,2.63c1.04,1,1.87,0.15,2.63-0.61  c2.11-2.12,4.23-4.23,6.34-6.35c2.63-2.63,3.98-5.78,3.96-9.52c-0.02-2.69-0.65-5.61,2.45-7.11C75.34,27.66,71.63,23.96,68.01,20.36  z M46.02,33.72c-1.08-0.83-2.08-1.39-2.75-2.22c-0.37-0.46-0.17-1.37-0.22-2.08c0.76,0.02,1.7-0.23,2.23,0.13  c0.86,0.59,1.46,1.57,2.2,2.43c0.63-0.58,0.96-0.85,1.25-1.16c0.32-0.34,0.61-0.71,0.86-1.01c-3.45-4.58-7.89-6.86-13.55-6.21  c-2.35,0.27-3.95-0.73-5.19-2.39c-3.8,3.84-7.53,7.59-11.13,11.23c0.42,1.1,0.78,2.3,1.34,3.4c0.95,1.89,1.69,4.01,3.09,5.52  c4.32,4.65,8.9,9.04,13.37,13.54c0.74,0.74,1.56,1.07,2.39,0.27c0.88-0.85,0.41-1.65-0.31-2.36c-1.64-1.64-3.27-3.28-4.92-4.92  c-0.75-0.74-1.36-1.56-0.43-2.51c0.94-0.97,1.76-0.34,2.5,0.41c1.22,1.23,2.45,2.45,3.82,3.81c0.21-1.16,0.36-1.98,0.51-2.78  c-3.21-2.71-3.31-5.07-0.36-7.99C42.32,37.25,43.96,35.71,46.02,33.72z M59.06,77.79c0.55-1.3,1.03-2.25,1.37-3.25  c0.71-2.12,1.64-4.23,1.92-6.41c0.34-2.64,0-5.37,0.12-8.05c0.08-1.65-0.3-2.93-1.98-3.9c-1.26,1.33-2.54,2.73-3.87,4.06  c-1.37,1.37-3,1.81-4.86,1.08c-1.72-0.67-1.96-2.63-3.06-3.62c-1.15-1.03-2.93-1.38-3.54-3.12c-0.02-0.06-0.03-0.13-0.06-0.17  c-0.46-0.51-0.93-1.01-1.4-1.51c-0.23,2.24-0.76,3.85-2.4,4.95c-1.7,1.15-3.44,0.71-5.1,0c-0.78,5.67,0.51,10.55,4.97,14.25  c1.69,1.39,2.59,3,2.23,5.22c-0.02,0.14,0.12,0.31,0.2,0.48C48.87,77.79,54.11,77.79,59.06,77.79z M89.22,25.39  c-5.17-5.24-10.25-10.38-15.3-15.49c-1.89,1.87-3.88,3.83-5.66,5.59c5.17,5.18,10.31,10.34,15.34,15.39  C85.48,29.05,87.48,27.1,89.22,25.39z M62.36,80.92c-7.37,0-14.59,0-21.76,0c0,2.97,0,5.79,0,8.57c7.33,0,14.5,0,21.76,0  C62.36,86.62,62.36,83.84,62.36,80.92z M15.07,32.08c5.07-5.07,10.18-10.19,15.21-15.21c-1.92-1.91-3.94-3.91-5.82-5.78  c-5.04,5.03-10.16,10.14-15.29,15.25C11.08,28.2,13.08,30.14,15.07,32.08z"/>
<path class="st0" d="M68.01,20.36c3.62,3.61,7.33,7.3,11.24,11.19c-3.1,1.5-2.46,4.42-2.45,7.11c0.02,3.75-1.33,6.89-3.96,9.52  c-2.12,2.11-4.24,4.22-6.34,6.35c-0.76,0.77-1.59,1.61-2.63,0.61c-1.03-0.99-0.3-1.84,0.5-2.63c2-1.97,3.97-3.97,5.96-5.96  c0.81-0.8,1.72-1.68,0.6-2.77c-1.04-1.01-1.88-0.12-2.63,0.63c-4.19,4.19-8.37,8.38-12.56,12.56c-0.35,0.35-0.64,0.86-1.05,1  c-0.7,0.23-1.72,0.55-2.18,0.23c-0.95-0.65-0.54-1.58,0.2-2.32c2.64-2.63,5.27-5.27,7.9-7.9c0.35-0.35,0.88-0.64,0.99-1.05  c0.17-0.67,0.06-1.4,0.07-2.11c-0.71,0.04-1.62-0.19-2.09,0.16c-1.12,0.83-2.03,1.93-3.02,2.92c-1.77,1.77-3.54,3.54-5.31,5.31  c-0.81,0.81-1.66,2-2.89,0.86c-1.29-1.19-0.05-2.06,0.74-2.86c2.62-2.65,5.26-5.27,7.9-7.9c0.76-0.76,1.62-1.58,0.57-2.62  c-1.02-1.01-1.86-0.23-2.64,0.54c-2.72,2.72-5.45,5.43-8.17,8.15c-0.77,0.77-1.6,1.58-2.62,0.53c-1.01-1.04-0.18-1.86,0.58-2.63  c2.73-2.71,5.43-5.44,8.16-8.15c0.81-0.8,1.43-1.67,0.41-2.65c-0.98-0.94-1.78-0.17-2.49,0.55c-2.07,2.07-4.15,4.14-6.21,6.22  c-0.73,0.73-1.52,1.42-2.5,0.49c-0.97-0.93-0.38-1.74,0.38-2.49c5.4-5.39,10.69-10.9,16.25-16.12c1.66-1.56,4.04-2.38,6.12-3.46  C65.82,21.15,66.9,20.81,68.01,20.36z"/>
<path class="st0" d="M46.02,33.72c-2.07,1.99-3.71,3.53-5.31,5.1c-2.96,2.92-2.85,5.28,0.36,7.99c-0.15,0.8-0.3,1.62-0.51,2.78  c-1.37-1.36-2.6-2.59-3.82-3.81c-0.74-0.74-1.55-1.38-2.5-0.41c-0.93,0.95-0.32,1.76,0.43,2.51c1.65,1.63,3.28,3.28,4.92,4.92  c0.72,0.71,1.18,1.51,0.31,2.36c-0.83,0.81-1.65,0.48-2.39-0.27c-4.47-4.5-9.06-8.9-13.37-13.54c-1.4-1.5-2.14-3.63-3.09-5.52  c-0.55-1.1-0.91-2.3-1.34-3.4c3.61-3.64,7.33-7.39,11.13-11.23c1.23,1.67,2.83,2.66,5.19,2.39c5.66-0.64,10.09,1.64,13.55,6.21  c-0.25,0.3-0.54,0.67-0.86,1.01c-0.29,0.3-0.61,0.57-1.25,1.16c-0.74-0.86-1.34-1.84-2.2-2.43c-0.53-0.36-1.47-0.11-2.23-0.13  c0.06,0.71-0.15,1.62,0.22,2.08C43.94,32.33,44.95,32.88,46.02,33.72z"/>
<path class="st0" d="M59.06,77.79c-4.95,0-10.18,0-15.45,0c-0.07-0.17-0.22-0.34-0.2-0.48c0.36-2.22-0.55-3.82-2.23-5.22  c-4.47-3.69-5.76-8.58-4.97-14.25c1.66,0.7,3.4,1.15,5.1,0c1.64-1.11,2.16-2.71,2.4-4.95c0.47,0.5,0.93,1.01,1.4,1.51  c0.04,0.04,0.04,0.11,0.06,0.17c0.61,1.74,2.39,2.09,3.54,3.12c1.1,0.99,1.34,2.94,3.06,3.62c1.87,0.73,3.49,0.28,4.86-1.08  c1.34-1.33,2.61-2.73,3.87-4.06c1.68,0.97,2.06,2.25,1.98,3.9c-0.13,2.68,0.21,5.4-0.12,8.05c-0.28,2.18-1.21,4.29-1.92,6.41  C60.09,75.53,59.61,76.49,59.06,77.79z M46.26,63.19c-0.25,0.22-1.14,0.63-1.31,1.24c-0.3,1.09,0.53,1.55,1.59,1.72  c2.64,0.44,3.7,1.5,4.14,4.13c0.18,1.06,0.64,1.92,1.71,1.59c0.55-0.17,1.18-1.23,1.18-1.88C53.57,66.57,50.28,63.34,46.26,63.19z"/>
<path class="st0" d="M89.22,25.39c-1.74,1.7-3.74,3.65-5.62,5.49c-5.03-5.05-10.17-10.2-15.34-15.39c1.78-1.75,3.77-3.72,5.66-5.59  C78.97,15.02,84.05,20.16,89.22,25.39z"/>
<path class="st0" d="M62.36,80.92c0,2.92,0,5.7,0,8.57c-7.26,0-14.44,0-21.76,0c0-2.78,0-5.61,0-8.57  C47.77,80.92,54.98,80.92,62.36,80.92z"/>
<path class="st0" d="M15.07,32.08c-1.99-1.94-4-3.89-5.91-5.74c5.13-5.12,10.25-10.23,15.29-15.25c1.88,1.87,3.9,3.87,5.82,5.78  C25.26,21.89,20.14,27.01,15.07,32.08z"/>
<path class="st1" d="M46.26,63.19c4.01,0.15,7.3,3.38,7.3,6.8c0,0.66-0.63,1.71-1.18,1.88c-1.07,0.33-1.53-0.53-1.71-1.59  c-0.44-2.63-1.5-3.68-4.14-4.13c-1.06-0.18-1.89-0.64-1.59-1.72C45.13,63.82,46.02,63.41,46.26,63.19z"/>
</svg>