<?xml version="1.0" encoding="UTF-8"?>
<!-- Generator: Adobe Illustrator 23.1.0, SVG Export Plug-In . SVG Version: 6.00 Build 0)  -->
<svg version="1.1" id="Layer_1" xmlns="http://www.w3.org/2000/svg" xmlns:xlink="http://www.w3.org/1999/xlink" x="0px" y="0px" viewBox="0 0 96 96" style="enable-background:new 0 0 96 96;" xml:space="preserve">
<style type="text/css">
	.st0{fill:#223268;}
</style>
<path class="st0" d="M13.43,68.28c-6.12-0.94-7.39-2.3-7.42-7.76c-0.03-6.94-0.49-13.94,0.21-20.81c0.32-3.11,2.31-6.81,4.73-8.79  c4.61-3.77,8.91-2.23,11.66,3.13c0.48,0.94,0.99,1.87,1.47,2.78c0.47-0.14,0.96-0.17,1-0.32c1.92-6.72,6.61-8.1,13.01-7.5  c5.67,0.53,11.42,0.04,17.13,0.14c4.04,0.07,6.66,2.41,6.33,5.73c-0.36,3.67-2.68,5.33-6.3,5.33c-6.32-0.01-12.63,0-19.6,0  c0,1.88,0,3.51,0,5.13c0,13.27,0.01,26.54,0,39.81c-0.01,7.42-3.04,9.68-10.04,7.72c-0.87-0.24-1.99,0.05-2.9,0.36  c-5,1.73-9.09-0.86-9.24-6.16C13.31,80.92,13.43,74.76,13.43,68.28z M25.34,44.22c-0.55-0.05-1.1-0.1-1.66-0.15  c-1.49-2.81-3.22-5.53-4.42-8.46c-1.56-3.82-4.23-3.61-6.49-1.54c-1.6,1.46-2.82,4.09-2.95,6.26c-0.38,6.61-0.25,13.26-0.05,19.88  c0.04,1.34,1.25,2.64,1.92,3.95c0.58-1.41,1.59-2.8,1.65-4.23c0.21-4.93,0-9.87,0.16-14.8c0.03-0.98,1.01-1.94,1.56-2.91  c0.68,0.99,1.59,1.9,1.97,3c0.33,0.97,0.07,2.13,0.07,3.21c0,12.49-0.1,24.98,0.14,37.47c0.03,1.44,1.88,2.84,2.88,4.26  c0.86-1.41,2.37-2.78,2.46-4.24c0.31-5.07-0.03-10.18,0.21-15.25c0.07-1.48,1.26-2.91,1.94-4.37c0.55,1.43,1.52,2.84,1.57,4.29  c0.19,5.39-0.09,10.8,0.22,16.18c0.07,1.18,1.83,2.26,2.82,3.39c0.87-1.09,1.98-2.06,2.54-3.29c0.41-0.9,0.1-2.12,0.1-3.2  c0-14.03,0.16-28.07-0.09-42.1c-0.07-4.19,1.33-5.34,5.31-5.13c5.69,0.3,11.42,0.19,17.13-0.02c1.17-0.04,2.3-1.27,3.45-1.95  c-1.11-0.56-2.22-1.59-3.34-1.62c-6.63-0.16-13.28,0.07-19.91-0.15c-2.63-0.09-3.86,0.92-4.85,3.14  C28.4,38.73,26.8,41.45,25.34,44.22z"/>
<path class="st0" d="M60.77,68.01c3.49,7.07,6.66,13.5,9.84,19.94c-0.3,0.32-0.59,0.63-0.89,0.95c-1.28-1.06-3.01-1.86-3.77-3.21  c-2.69-4.82-5.05-9.82-7.68-15.05c-5.18,5.41-5.39,14.08-11.59,18.3c-0.48-0.33-0.95-0.65-1.43-0.98  c3.16-6.41,6.31-12.81,9.83-19.95c-4.72,0-8.81,0.16-12.88-0.1c-1.11-0.07-2.14-1.39-3.2-2.14c0.25-0.43,0.51-0.87,0.76-1.3  c15.71,0,31.42,0,47.49,0c0-16.09,0-31.88,0-48.34c-1.5,0-3.13,0-4.76,0c-13.74,0-27.48,0-41.23,0c-2.19,0-4.66,0.36-3.29-3.56  c5.75,0,11.57,0,16.74,0c1.36-1.61,2.29-2.7,3.22-3.79c0.87,0.95,1.74,1.9,3.38,3.68c7.54,0,16.32,0.18,25.09-0.08  c3.9-0.11,5.01,1.19,4.96,5.01c-0.19,15.27-0.2,30.54,0.01,45.81c0.06,3.98-1.33,5-5.07,4.89C78.03,67.85,69.75,68.01,60.77,68.01z"/>
<path class="st0" d="M33.78,17.78c0.12,5.05-4.2,9.46-9.26,9.45c-4.88-0.01-9.11-4.15-9.23-9.02c-0.12-5.05,4.2-9.46,9.26-9.45  C29.43,8.77,33.66,12.91,33.78,17.78z M30.15,18.18c-0.34-3.35-2.03-5.57-5.45-5.66c-3.4-0.09-5.54,1.94-5.64,5.32  c-0.11,3.4,1.94,5.52,5.32,5.64C27.81,23.61,29.6,21.45,30.15,18.18z"/>
</svg>