<?xml version="1.0" encoding="UTF-8"?>
<!-- Generator: Adobe Illustrator 23.1.0, SVG Export Plug-In . SVG Version: 6.00 Build 0)  -->
<svg version="1.1" id="Capa_1" xmlns="http://www.w3.org/2000/svg" xmlns:xlink="http://www.w3.org/1999/xlink" x="0px" y="0px" viewBox="0 0 512 512" style="enable-background:new 0 0 512 512;" xml:space="preserve">
<style type="text/css">
	.st0{fill:#002A6C;}
</style>
<g>
	<path class="st0" d="M211,512h90v-91h120V30h-92.6C322.2,12.5,305.6,0,286,0h-60c-19.6,0-36.2,12.5-42.4,30H91v391h120V512z    M271,482h-30v-91h30V482z M256,301c-41.4,0-75-33.6-75-75c0-41.9,33.6-76,75-76s75,34.1,75,76C331,267.4,297.4,301,256,301z    M226,30h60c8.3,0,15,6.7,15,15v15h-90V45C211,36.7,217.7,30,226,30z M121,391V60h60v30h150V60h60v331h-90v-30h-30v-31.1   c50.8-7.3,90-51.1,90-103.9c0-58.4-47.1-106-105-106s-105,47.6-105,106c0,52.8,39.2,96.6,90,103.9V361h-30v30H121z"/>
	<path class="st0" d="M290.4,185.4L241,234.8l-19.4-19.4l-21.2,21.2l40.6,40.6l70.6-70.6L290.4,185.4z"/>
</g>
</svg>