<?xml version="1.0" encoding="UTF-8"?>
<!-- Generator: Adobe Illustrator 23.1.0, SVG Export Plug-In . SVG Version: 6.00 Build 0)  -->
<svg version="1.1" id="Layer_1" xmlns="http://www.w3.org/2000/svg" xmlns:xlink="http://www.w3.org/1999/xlink" x="0px" y="0px" viewBox="0 0 96 96" style="enable-background:new 0 0 96 96;" xml:space="preserve">
<style type="text/css">
	.st0{fill:#223268;}
</style>
<path class="st0" d="M29.92,62.08c2.87,1.77,6.48,3.29,9.42,5.95c4.68,4.23,6.14,10.69,6.15,17.65c0,2.43-1.19,3.74-3.08,3.75  c-10.51,0.05-21.02,0.06-31.52-0.01c-2.54-0.02-3.46-1.77-3.2-5.47C8.5,72.4,13.2,65.71,22.37,63.02c0.58-0.17,1.16-0.31,2.09-0.55  c-3.84-1.34-6.95-3.41-9.04-7.37c-2.08-3.91-2.8-8.2-2.04-12.73c1.41-8.32,7.01-13.61,13.88-13.38c5.94,0.2,11.67,6.23,12.56,13.47  C40.87,50.98,37.88,59.2,29.92,62.08z"/>
<path class="st0" d="M88.52,40.45c-0.21,13.44-3.8,25.22-11.22,35.13c-1.28,1.71-2.74,2.9-4.4,1.06c-1.65-1.82-0.97-3.66,0.35-5.47  c13.2-18.23,13.23-42.58,0.08-60.92c-1.27-1.78-2.05-3.68-0.56-5.58c1.71-2.18,3.21-0.77,4.55,1  C84.71,15.46,88.24,27.15,88.52,40.45z"/>
<path class="st0" d="M71.3,40c0,8.34-2.08,14.96-6.21,20.6c-1.27,1.73-2.66,2.91-4.35,0.98c-1.53-1.75-0.92-3.49,0.23-5.26  c6.86-10.55,6.81-20.97-0.12-31.54c-1.11-1.69-1.54-3.47-0.18-5.06c1.44-1.69,2.97-1.19,4.24,0.57C69.11,26.09,71.39,32.84,71.3,40z  "/>
<path class="st0" d="M57.91,39.31c-0.08,5.59-1.19,9.01-3.33,11.95c-1.22,1.69-2.65,2.04-4.04,0.64c-1.33-1.35-1.14-3.05-0.19-4.78  c3.02-5.51,3-7.58-0.04-13.08c-0.96-1.74-1.01-3.34,0.31-4.78c1.37-1.5,2.71-1.01,3.82,0.47C56.79,32.87,57.98,36.61,57.91,39.31z"/>
</svg>